<svg width="406.812988" height="49.612793" viewBox="0 0 406.813 49.6128" fill="none" xmlns="http://www.w3.org/2000/svg" xmlns:xlink="http://www.w3.org/1999/xlink">
    <desc>
        Created with Pixso.
    </desc>
    <defs/>
    <g style="mix-blend-mode:normal">
        <path id="КАФЕДРА 806 РАСПИСАНИЕ
ЗАНЯТОСТИ КОМПЬЮТЕРНЫХ КЛАССОВ" d="M45.27 19.41L45.27 17.07L45.62 17.07Q47.64 17.07 49.23 16.24Q50.24 15.72 51.07 14.87Q52.05 13.86 52.58 12.65Q53.21 11.22 53.21 9.51Q53.21 7.64 52.46 6.15Q51.95 5.16 51.11 4.33Q50.53 3.76 49.84 3.35Q48.08 2.28 45.66 2.28L45.27 2.28L45.27 0L42.27 0L42.27 2.28L41.77 2.28Q39.59 2.28 37.93 3.21Q37.1 3.67 36.41 4.37Q35.47 5.29 34.96 6.41Q34.31 7.81 34.31 9.51Q34.31 11.34 35.01 12.83Q35.54 13.95 36.46 14.89Q37.27 15.71 38.25 16.22Q39.85 17.07 41.9 17.07L42.27 17.07L42.27 19.41L45.27 19.41ZM130.14 12.56Q129.95 13.3 129.95 14.09Q129.95 15.32 130.41 16.34Q130.42 16.35 130.42 16.36Q130.7 16.96 131.1 17.47Q131.38 17.82 131.73 18.12Q132.56 18.85 133.72 19.26Q134.87 19.66 136.25 19.66Q137.65 19.66 138.81 19.26Q139.97 18.85 140.8 18.12Q141.14 17.82 141.41 17.48Q141.82 16.97 142.1 16.36Q142.56 15.33 142.56 14.09Q142.56 13.26 142.35 12.49Q142.18 11.89 141.88 11.36Q141.8 11.22 141.71 11.08Q141.69 11.05 141.67 11.01Q141.26 10.41 140.67 9.93Q140.04 9.42 139.22 9.1Q140.19 8.55 140.84 7.75Q141 7.56 141.15 7.34Q141.5 6.83 141.68 6.26Q141.87 5.64 141.87 4.97Q141.87 4.19 141.64 3.51Q141.56 3.28 141.45 3.05Q141.28 2.7 141.06 2.38Q140.72 1.91 140.27 1.52Q139.51 0.88 138.48 0.51Q137.44 0.14 136.22 0.14Q135 0.14 133.98 0.5Q132.95 0.87 132.19 1.51Q131.75 1.89 131.41 2.35Q131.18 2.67 131 3.04Q130.91 3.23 130.84 3.42Q130.57 4.14 130.57 4.97Q130.57 5.64 130.77 6.26Q130.95 6.83 131.3 7.34Q131.4 7.49 131.5 7.63Q132.19 8.51 133.25 9.1Q132.42 9.42 131.8 9.94Q131.18 10.45 130.77 11.1Q130.72 11.18 130.67 11.26Q130.34 11.84 130.16 12.51Q130.15 12.53 130.14 12.56ZM148.46 19.05Q149.63 19.68 151.14 19.68Q152.82 19.68 154.11 18.96Q155.24 18.33 156.06 17.15Q157.82 14.63 157.82 9.83Q157.82 2.98 154.71 0.97Q153.41 0.14 151.59 0.14Q149.78 0.14 148.44 0.94Q147.37 1.57 146.6 2.71Q144.88 5.28 144.88 10.29Q144.88 14.85 146.53 17.27Q147.34 18.45 148.46 19.05ZM172.52 15.88Q172.98 14.71 172.98 13.28Q172.98 11.93 172.6 10.84Q172.22 9.75 171.51 8.99Q171.3 8.76 171.05 8.56Q170.5 8.11 169.81 7.83Q168.82 7.43 167.58 7.43Q166.18 7.43 165.15 7.97Q164.45 8.34 163.94 8.88Q163.7 9.14 163.5 9.45L163.43 9.45Q163.44 7.79 163.83 6.51Q164.22 5.24 164.9 4.38Q165.42 3.71 166.1 3.29Q166.3 3.17 166.51 3.07Q166.68 2.99 166.85 2.92Q167.64 2.62 168.55 2.62Q169.54 2.62 170.31 2.86Q171.07 3.09 171.75 3.44L171.75 0.68Q171.22 0.43 170.34 0.29Q169.46 0.14 168.4 0.14Q167.16 0.14 166.04 0.51Q165.62 0.65 165.21 0.85Q164.96 0.97 164.73 1.1Q163.55 1.79 162.64 2.93Q161.54 4.31 160.91 6.34Q160.29 8.37 160.29 10.99Q160.29 13.14 160.76 14.77Q161.24 16.4 162.1 17.49Q162.76 18.33 163.62 18.85Q163.88 19.01 164.16 19.14Q164.26 19.19 164.37 19.23Q165.48 19.69 166.77 19.69Q168.1 19.69 169.24 19.23L169.25 19.22Q170.07 18.89 170.73 18.35Q170.99 18.14 171.22 17.9Q171.31 17.81 171.4 17.71Q172.1 16.92 172.52 15.88ZM223.74 19.68Q226.92 19.68 229.05 18.57L229.05 15.67Q228.86 15.79 228.67 15.9Q226.83 16.94 224.41 16.94Q222.4 16.94 220.93 16.05Q220.28 15.65 219.73 15.08Q219.43 14.77 219.18 14.42Q217.95 12.7 217.95 10.11Q217.95 7.46 219.19 5.67Q219.49 5.24 219.86 4.86Q220.45 4.24 221.17 3.82Q222.72 2.9 224.83 2.9Q226.29 2.9 227.6 3.35Q228.35 3.61 229.05 4.03L229.05 0.92Q227.25 0.14 224.5 0.14Q221.83 0.14 219.74 1.24Q218.5 1.89 217.46 2.93Q216.71 3.69 216.16 4.57Q214.67 6.95 214.67 10.27Q214.67 13.55 216.18 15.86Q216.6 16.51 217.15 17.08Q217.86 17.82 218.7 18.35Q220.8 19.68 223.74 19.68ZM281.43 19.68Q284.61 19.68 286.74 18.57L286.74 15.67Q286.55 15.79 286.36 15.9Q284.52 16.94 282.1 16.94Q280.09 16.94 278.62 16.05Q277.97 15.65 277.42 15.08Q277.12 14.77 276.87 14.42Q275.64 12.7 275.64 10.11Q275.64 7.46 276.88 5.67Q277.18 5.24 277.55 4.86Q278.14 4.24 278.85 3.82Q280.41 2.9 282.52 2.9Q283.98 2.9 285.29 3.35Q286.04 3.61 286.74 4.03L286.74 0.92Q284.94 0.14 282.19 0.14Q279.52 0.14 277.43 1.24Q276.19 1.89 275.15 2.93Q274.4 3.69 273.85 4.57Q272.36 6.95 272.36 10.27Q272.36 13.55 273.87 15.86Q274.29 16.51 274.84 17.08Q275.55 17.82 276.39 18.35Q278.49 19.68 281.43 19.68ZM11.67 19.36L15.76 19.36L7.77 9.53L15.19 0.46L11.44 0.46L5.1 8.7Q4.81 9.05 4.65 9.34L4.59 9.34L4.59 0.46L1.46 0.46L1.46 19.36L4.59 19.36L4.59 10.05L4.65 10.05Q4.73 10.23 5.1 10.71L11.67 19.36ZM30.14 19.36L33.58 19.36L26.56 0.46L23.02 0.46L15.95 19.36L19.37 19.36L21.01 14.55L28.44 14.55L30.14 19.36ZM56.63 19.36L67.24 19.36L67.24 16.71L59.77 16.71L59.77 11.12L66.27 11.12L66.27 8.47L59.77 8.47L59.77 3.12L66.82 3.12L66.82 0.46L56.63 0.46L56.63 19.36ZM85.17 24.46L87.98 24.46L87.98 16.7L85.37 16.7L85.37 0.46L75.55 0.46Q75.39 4.46 74.15 8.91Q72.91 13.36 71.13 16.7L69.54 16.7L69.54 24.46L72.33 24.46L72.33 19.36L85.17 19.36L85.17 24.46ZM94.48 19.36L94.48 12.51L97 12.51Q99.78 12.51 101.57 11.17Q101.82 10.97 102.06 10.75Q102.78 10.07 103.23 9.24Q103.93 7.93 103.93 6.24Q103.93 4.26 103 2.92Q102.64 2.4 102.14 1.97Q100.35 0.46 97.09 0.46L91.35 0.46L91.35 19.36L94.48 19.36ZM117.42 19.36L120.86 19.36L113.83 0.46L110.3 0.46L103.22 19.36L106.65 19.36L108.28 14.55L115.72 14.55L117.42 19.36ZM187.1 19.36L187.1 12.51L189.62 12.51Q192.41 12.51 194.19 11.17Q194.45 10.97 194.68 10.75Q195.41 10.07 195.85 9.24Q196.56 7.93 196.56 6.24Q196.56 4.26 195.63 2.92Q195.27 2.4 194.76 1.97Q192.97 0.46 189.71 0.46L183.98 0.46L183.98 19.36L187.1 19.36ZM210.04 19.36L213.48 19.36L206.46 0.46L202.92 0.46L195.84 19.36L199.27 19.36L200.91 14.55L208.34 14.55L210.04 19.36ZM244.85 19.36L248 19.36L248 0.46L232.74 0.46L232.74 19.36L235.88 19.36L235.88 3.26L244.85 3.26L244.85 19.36ZM265.74 19.36L268.76 19.36L268.76 0.46L265.15 0.46L256.39 14.02Q255.97 14.66 255.71 15.18L255.66 15.18Q255.76 14.55 255.76 12.48L255.76 0.46L252.73 0.46L252.73 19.36L256.17 19.36L265.24 5.47Q265.57 4.97 265.79 4.37L265.87 4.37Q265.74 5.07 265.74 6.77L265.74 19.36ZM302.52 19.36L305.96 19.36L298.94 0.46L295.4 0.46L288.32 19.36L291.75 19.36L293.39 14.55L300.82 14.55L302.52 19.36ZM320.7 19.36L323.85 19.36L323.85 0.46L320.7 0.46L320.7 8.41L311.8 8.41L311.8 0.46L308.67 0.46L308.67 19.36L311.8 19.36L311.8 11.16L320.7 11.16L320.7 19.36ZM341.64 19.36L344.66 19.36L344.66 0.46L341.04 0.46L332.29 14.02Q331.87 14.66 331.6 15.18L331.55 15.18Q331.66 14.55 331.66 12.48L331.66 0.46L328.63 0.46L328.63 19.36L332.07 19.36L341.14 5.47Q341.47 4.97 341.69 4.37L341.77 4.37Q341.64 5.07 341.64 6.77L341.64 19.36ZM349.45 19.36L360.07 19.36L360.07 16.71L352.59 16.71L352.59 11.12L359.09 11.12L359.09 8.47L352.59 8.47L352.59 3.12L359.65 3.12L359.65 0.46L349.45 0.46L349.45 19.36ZM133.78 6.36Q133.58 5.86 133.58 5.28Q133.58 4.81 133.71 4.37Q133.74 4.29 133.77 4.21Q133.93 3.79 134.19 3.46Q134.25 3.39 134.31 3.32Q134.42 3.2 134.55 3.09Q134.81 2.87 135.15 2.72Q135.64 2.5 136.23 2.5Q136.73 2.5 137.17 2.66Q137.23 2.69 137.28 2.71Q137.64 2.86 137.92 3.1Q138.03 3.19 138.13 3.29L138.14 3.3Q138.49 3.67 138.69 4.17Q138.69 4.19 138.7 4.2Q138.89 4.7 138.89 5.28Q138.89 5.77 138.74 6.21Q138.71 6.29 138.68 6.37Q138.5 6.81 138.2 7.15Q138.16 7.2 138.11 7.25Q137.96 7.41 137.78 7.54Q137.54 7.72 137.26 7.85Q137.15 7.9 137.03 7.94Q136.65 8.06 136.23 8.06Q135.78 8.06 135.38 7.93Q135.29 7.89 135.19 7.85Q134.91 7.73 134.67 7.54Q134.5 7.42 134.36 7.27Q134.34 7.25 134.32 7.22Q133.99 6.86 133.79 6.38Q133.79 6.37 133.78 6.36ZM150.37 2.8Q150.86 2.58 151.44 2.58Q151.96 2.58 152.4 2.77Q154.7 3.77 154.7 10.04Q154.7 15.99 152.44 17.03Q151.96 17.25 151.38 17.25Q150.75 17.25 150.25 17.01Q148 15.94 148 10.16Q148 3.87 150.37 2.8ZM94.48 9.95L94.48 3.04L96.76 3.04Q98.99 3.04 99.93 4.14Q100.64 4.96 100.64 6.38Q100.64 7.68 100.02 8.53Q99.83 8.79 99.58 9.01Q98.53 9.95 96.51 9.95L94.48 9.95ZM187.1 9.95L187.1 3.04L189.38 3.04Q191.61 3.04 192.56 4.14Q193.26 4.96 193.26 6.38Q193.26 7.68 192.64 8.53Q192.45 8.79 192.21 9.01Q191.15 9.95 189.13 9.95L187.1 9.95ZM82.23 3.16L82.23 16.7L74.43 16.7Q75.77 14.05 76.87 10.08Q77.96 6.11 78.14 3.16L82.23 3.16ZM24.99 4.45L27.61 11.99L21.83 11.99L24.42 4.45Q24.57 4.02 24.69 3.26L24.74 3.26Q24.87 4.08 24.99 4.45ZM112.26 4.45L114.89 11.99L109.1 11.99L111.7 4.45Q111.84 4.02 111.96 3.26L112.01 3.26Q112.14 4.08 112.26 4.45ZM204.89 4.45L207.51 11.99L201.72 11.99L204.32 4.45Q204.47 4.02 204.58 3.26L204.64 3.26Q204.77 4.08 204.89 4.45ZM297.37 4.45L299.99 11.99L294.2 11.99L296.8 4.45Q296.95 4.02 297.06 3.26L297.12 3.26Q297.25 4.08 297.37 4.45ZM42.27 4.73L42.27 14.55L41.96 14.55Q40.68 14.55 39.73 14Q39.19 13.69 38.76 13.2Q38.66 13.08 38.56 12.96Q37.55 11.65 37.55 9.57Q37.55 7.86 38.33 6.66Q38.52 6.35 38.77 6.08Q39.22 5.58 39.77 5.27Q40.72 4.73 41.98 4.73L42.27 4.73ZM45.27 14.55L45.27 4.73L45.54 4.73Q46.93 4.73 47.93 5.35Q48.39 5.64 48.77 6.06Q48.95 6.25 49.1 6.47Q49.97 7.71 49.97 9.57Q49.97 11.63 48.98 12.94Q48.88 13.07 48.77 13.19Q48.35 13.67 47.82 13.98Q46.86 14.55 45.57 14.55L45.27 14.55ZM169.71 12.04Q169.9 12.72 169.9 13.53Q169.9 14.31 169.7 14.98Q169.49 15.64 169.1 16.13Q168.96 16.3 168.8 16.45Q168.51 16.72 168.13 16.9Q167.55 17.17 166.8 17.17Q165.96 17.17 165.34 16.8Q164.96 16.56 164.65 16.24Q164.48 16.05 164.34 15.84Q164.28 15.76 164.23 15.67Q163.91 15.16 163.75 14.56Q163.56 13.85 163.56 13.18Q163.56 12.94 163.59 12.71Q163.64 12.33 163.76 11.97Q163.89 11.6 164.09 11.28Q164.22 11.09 164.38 10.91Q164.4 10.88 164.42 10.86Q164.82 10.43 165.38 10.17Q165.98 9.88 166.77 9.88Q167.57 9.88 168.15 10.15Q168.55 10.33 168.86 10.6Q169 10.74 169.13 10.89Q169.52 11.37 169.71 12.04ZM133.17 15.27Q132.93 14.63 132.93 13.82Q132.93 13.06 133.18 12.41Q133.43 11.78 133.86 11.32Q133.87 11.31 133.88 11.3Q134.01 11.15 134.17 11.03Q134.51 10.75 134.93 10.57Q134.98 10.56 135.02 10.54Q135.6 10.32 136.25 10.32Q137.01 10.32 137.62 10.59Q138.09 10.81 138.46 11.14Q138.57 11.24 138.67 11.35Q138.72 11.4 138.77 11.46Q139.13 11.9 139.34 12.46Q139.35 12.48 139.35 12.49Q139.58 13.12 139.58 13.82Q139.58 14.62 139.33 15.26Q139.08 15.89 138.64 16.34L138.64 16.35Q138.49 16.5 138.33 16.62Q138 16.88 137.59 17.05Q136.98 17.29 136.25 17.29Q135.5 17.29 134.89 17.05Q134.42 16.87 134.05 16.56Q133.94 16.47 133.84 16.37Q133.41 15.92 133.17 15.27ZM0 46.45L0 48.79Q1.41 49.61 4 49.61Q6.62 49.61 8.13 48.41Q8.79 47.88 9.16 47.2Q9.63 46.33 9.63 45.19Q9.63 44.31 9.28 43.6Q9.07 43.18 8.74 42.83Q8.57 42.65 8.38 42.5Q7.55 41.84 6.32 41.7L6.32 41.66Q7.81 41.27 8.51 40.31Q9.16 39.43 9.16 38.07Q9.16 37.23 8.83 36.55Q8.51 35.91 7.89 35.42Q6.62 34.41 4.4 34.41Q2.18 34.41 0.48 35.3L0.48 37.48Q1.97 36.52 3.54 36.39Q3.79 36.37 4.04 36.37Q5.23 36.37 5.92 36.95Q6.2 37.18 6.36 37.48Q6.61 37.92 6.61 38.49Q6.61 39.18 6.3 39.68Q6.11 39.99 5.8 40.23Q4.99 40.84 3.51 40.84L1.92 40.84L1.92 42.75L3.61 42.75Q5.93 42.75 6.7 43.84Q7.09 44.39 7.09 45.21Q7.09 45.83 6.83 46.31Q6.62 46.7 6.23 47.01Q5.38 47.68 3.93 47.68Q2.61 47.68 1.46 47.24Q0.69 46.94 0 46.45ZM68.39 48.63Q69.98 49.61 72.16 49.61Q74.42 49.61 76.04 48.6Q76.75 48.15 77.34 47.52Q77.54 47.31 77.71 47.08Q79.28 45.06 79.28 41.83Q79.28 39.15 78.05 37.3Q77.75 36.86 77.39 36.46Q76.74 35.76 75.96 35.3Q74.44 34.41 72.4 34.41Q69.97 34.41 68.27 35.53Q67.64 35.95 67.11 36.52Q66.85 36.8 66.63 37.1Q65.16 39.1 65.16 42.18Q65.16 44.79 66.35 46.62Q66.67 47.11 67.07 47.55Q67.67 48.19 68.39 48.63ZM88.2 49.61Q90.67 49.61 92.34 48.75L92.34 46.49Q92.19 46.59 92.04 46.67Q90.61 47.48 88.73 47.48Q87.16 47.48 86.02 46.78Q85.51 46.48 85.09 46.03Q84.85 45.79 84.66 45.52Q83.7 44.18 83.7 42.16Q83.7 40.1 84.67 38.71Q84.9 38.38 85.18 38.08Q85.65 37.6 86.2 37.27Q87.41 36.55 89.05 36.55Q90.19 36.55 91.2 36.91Q91.79 37.11 92.34 37.44L92.34 35.02Q90.93 34.41 88.8 34.41Q86.72 34.41 85.09 35.27Q84.13 35.78 83.32 36.59Q82.73 37.17 82.31 37.86Q81.15 39.71 81.15 42.29Q81.15 44.85 82.32 46.64Q82.65 47.14 83.08 47.59Q83.63 48.17 84.28 48.58Q85.92 49.61 88.2 49.61ZM143.38 48.63Q144.97 49.61 147.16 49.61Q149.41 49.61 151.03 48.6Q151.74 48.15 152.33 47.52Q152.53 47.31 152.7 47.08Q154.27 45.06 154.27 41.83Q154.27 39.15 153.04 37.3Q152.74 36.86 152.38 36.46Q151.74 35.76 150.95 35.3Q149.43 34.41 147.39 34.41Q144.96 34.41 143.27 35.53Q142.63 35.95 142.1 36.52Q141.85 36.8 141.63 37.1Q140.15 39.1 140.15 42.18Q140.15 44.79 141.34 46.62Q141.66 47.11 142.06 47.55Q142.66 48.19 143.38 48.63ZM207.23 42.85L210.4 42.85Q210.47 45.31 211.64 46.99Q211.93 47.4 212.28 47.76Q212.78 48.27 213.38 48.64Q214.91 49.61 217.05 49.61Q219.28 49.61 220.86 48.59Q221.52 48.16 222.07 47.55Q222.13 47.48 222.19 47.41Q223.92 45.37 223.92 41.87Q223.92 38.82 222.46 36.87Q222.29 36.65 222.11 36.45Q221.48 35.74 220.7 35.27Q219.25 34.41 217.29 34.41Q215 34.41 213.38 35.46Q212.96 35.74 212.58 36.09Q212.34 36.31 212.13 36.56Q210.73 38.16 210.46 40.75L207.23 40.75L207.23 34.66L204.8 34.66L204.8 49.36L207.23 49.36L207.23 42.85ZM361.73 49.61Q364.2 49.61 365.86 48.75L365.86 46.49Q365.71 46.59 365.56 46.67Q364.13 47.48 362.25 47.48Q360.68 47.48 359.54 46.78Q359.03 46.48 358.61 46.03Q358.37 45.79 358.18 45.52Q357.22 44.18 357.22 42.16Q357.22 40.1 358.19 38.71Q358.42 38.38 358.71 38.08Q359.17 37.6 359.72 37.27Q360.94 36.55 362.58 36.55Q363.71 36.55 364.72 36.91Q365.31 37.11 365.86 37.44L365.86 35.02Q364.45 34.41 362.32 34.41Q360.24 34.41 358.61 35.27Q357.65 35.78 356.84 36.59Q356.25 37.17 355.83 37.86Q354.67 39.71 354.67 42.29Q354.67 44.85 355.84 46.64Q356.17 47.14 356.6 47.59Q357.15 48.17 357.8 48.58Q359.44 49.61 361.73 49.61ZM374.36 49.61Q376.83 49.61 378.49 48.75L378.49 46.49Q378.35 46.59 378.19 46.67Q376.76 47.48 374.88 47.48Q373.32 47.48 372.17 46.78Q371.67 46.48 371.24 46.03Q371.01 45.79 370.81 45.52Q369.86 44.18 369.86 42.16Q369.86 40.1 370.82 38.71Q371.05 38.38 371.34 38.08Q371.8 37.6 372.36 37.27Q373.57 36.55 375.21 36.55Q376.35 36.55 377.36 36.91Q377.95 37.11 378.49 37.44L378.49 35.02Q377.09 34.41 374.96 34.41Q372.88 34.41 371.25 35.27Q370.28 35.78 369.47 36.59Q368.89 37.17 368.46 37.86Q367.31 39.71 367.31 42.29Q367.31 44.85 368.48 46.64Q368.81 47.14 369.23 47.59Q369.78 48.17 370.44 48.58Q372.08 49.61 374.36 49.61ZM383.16 48.63Q384.75 49.61 386.93 49.61Q389.19 49.61 390.81 48.6Q391.52 48.15 392.11 47.52Q392.31 47.31 392.48 47.08Q394.05 45.06 394.05 41.83Q394.05 39.15 392.82 37.3Q392.52 36.86 392.16 36.46Q391.51 35.76 390.73 35.3Q389.21 34.41 387.17 34.41Q384.74 34.41 383.04 35.53Q382.41 35.95 381.88 36.52Q381.63 36.8 381.4 37.1Q379.93 39.1 379.93 42.18Q379.93 44.79 381.12 46.62Q381.44 47.11 381.84 47.55Q382.44 48.19 383.16 48.63ZM21.96 49.36L24.64 49.36L19.17 34.66L16.42 34.66L10.92 49.36L13.58 49.36L14.86 45.62L20.64 45.62L21.96 49.36ZM36.12 49.36L38.58 49.36L38.58 34.66L36.12 34.66L36.12 40.84L29.2 40.84L29.2 34.66L26.76 34.66L26.76 49.36L29.2 49.36L29.2 42.98L36.12 42.98L36.12 49.36ZM49.1 49.36L51.54 49.36L51.54 34.66L46.94 34.66Q44.73 34.66 43.35 35.73Q43.3 35.76 43.25 35.8Q42.63 36.31 42.28 36.96Q41.85 37.78 41.85 38.83Q41.85 39.85 42.26 40.66Q42.44 41 42.69 41.31Q42.83 41.47 42.98 41.61Q43.78 42.38 45.06 42.65L45.06 42.69Q44.92 42.74 44.78 42.81Q44.25 43.07 43.83 43.54Q43.3 44.14 43.05 44.69L40.88 49.36L43.74 49.36L45.48 45.2Q46 44.03 46.46 43.69Q46.61 43.58 46.79 43.5Q47.12 43.35 47.52 43.35L49.1 43.35L49.1 49.36ZM60.49 36.73L64.72 36.73L64.72 34.66L53.84 34.66L53.84 36.73L58.05 36.73L58.05 49.36L60.49 49.36L60.49 36.73ZM100.44 36.73L104.66 36.73L104.66 34.66L93.78 34.66L93.78 36.73L98 36.73L98 49.36L100.44 49.36L100.44 36.73ZM117.04 49.36L119.39 49.36L119.39 34.66L116.58 34.66L109.77 45.21Q109.44 45.7 109.24 46.11L109.2 46.11Q109.28 45.62 109.28 44.01L109.28 34.66L106.92 34.66L106.92 49.36L109.6 49.36L116.65 38.55Q116.91 38.16 117.08 37.7L117.15 37.7Q117.04 38.25 117.04 39.57L117.04 49.36ZM136.97 49.36L140.15 49.36L133.94 41.71L139.71 34.66L136.79 34.66L131.85 41.07Q131.63 41.34 131.5 41.57L131.46 41.57L131.46 34.66L129.02 34.66L129.02 49.36L131.46 49.36L131.46 42.12L131.5 42.12Q131.57 42.26 131.85 42.64L136.97 49.36ZM170.44 49.36L172.86 49.36L172.86 34.66L169.55 34.66L165.62 44.41Q165.38 44.97 165 46.13L164.95 46.13Q164.82 45.58 164.37 44.45L160.51 34.66L157.07 34.66L157.07 49.36L159.33 49.36L159.33 39.87Q159.33 37.87 159.25 36.99L159.29 36.99Q159.49 37.97 159.68 38.45L164.08 49.36L165.76 49.36L170.15 38.37Q170.32 37.95 170.55 36.99L170.59 36.99Q170.44 38.68 170.44 39.85L170.44 49.36ZM186 49.36L188.45 49.36L188.45 34.66L176.59 34.66L176.59 49.36L179.03 49.36L179.03 36.84L186 36.84L186 49.36ZM192.16 34.66L192.16 49.36L196.95 49.36Q199.14 49.36 200.48 48.29Q200.58 48.21 200.67 48.13Q201.06 47.77 201.34 47.35Q202.04 46.28 202.04 44.76Q202.04 43.29 201.35 42.32Q201.09 41.96 200.74 41.66Q199.44 40.57 197.1 40.57L194.59 40.57L194.59 34.66L192.16 34.66ZM231.07 36.73L235.29 36.73L235.29 34.66L224.41 34.66L224.41 36.73L228.63 36.73L228.63 49.36L231.07 49.36L231.07 36.73ZM237.55 49.36L245.8 49.36L245.8 47.3L239.99 47.3L239.99 42.95L245.04 42.95L245.04 40.89L239.99 40.89L239.99 36.73L245.47 36.73L245.47 34.66L237.55 34.66L237.55 49.36ZM250.95 49.36L250.95 44.03L252.91 44.03Q255.08 44.03 256.47 42.99Q256.67 42.84 256.85 42.67Q257.41 42.14 257.76 41.49Q258.3 40.47 258.3 39.16Q258.3 37.62 257.58 36.58Q257.3 36.17 256.91 35.84Q255.52 34.66 252.98 34.66L248.52 34.66L248.52 49.36L250.95 49.36ZM270.26 49.36L272.71 49.36L272.71 34.66L270.26 34.66L270.26 40.84L263.34 40.84L263.34 34.66L260.9 34.66L260.9 49.36L263.34 49.36L263.34 42.98L270.26 42.98L270.26 49.36ZM276.45 34.66L276.45 49.36L281.24 49.36Q283.43 49.36 284.77 48.29Q284.87 48.21 284.96 48.13Q285.35 47.77 285.64 47.35Q286.33 46.28 286.33 44.76Q286.33 43.29 285.64 42.32Q285.39 41.96 285.03 41.66Q283.73 40.57 281.39 40.57L278.88 40.57L278.88 34.66L276.45 34.66ZM287.91 49.36L290.34 49.36L290.34 34.66L287.91 34.66L287.91 49.36ZM302.16 49.36L305.08 49.36L300.46 41.95L304.99 34.66L302.24 34.66L299.48 39.58Q299.27 39.96 298.97 40.6L298.94 40.6Q298.73 40.11 298.48 39.62L295.82 34.66L292.84 34.66L297.27 41.97L292.45 49.36L295.39 49.36L298.5 43.97Q298.71 43.5 298.81 43.27L298.85 43.27Q299.01 43.72 299.14 43.97L302.16 49.36ZM321.02 49.36L324.2 49.36L317.98 41.71L323.76 34.66L320.84 34.66L315.9 41.07Q315.68 41.34 315.55 41.57L315.51 41.57L315.51 34.66L313.07 34.66L313.07 49.36L315.51 49.36L315.51 42.12L315.55 42.12Q315.62 42.26 315.9 42.64L321.02 49.36ZM335.45 49.36L337.89 49.36L337.89 34.66L329.88 34.66Q329.19 39.94 328.63 43Q328.06 46.06 327.51 46.79Q327.02 47.45 326.46 47.51Q326.4 47.52 326.34 47.52Q325.82 47.52 325.38 47.32Q325.31 47.29 325.25 47.26L325.25 49.34Q325.91 49.58 326.82 49.58Q327.77 49.58 328.49 49.16Q328.56 49.12 328.63 49.07Q329.39 48.56 329.83 47.52Q330.27 46.48 330.7 44.28Q331.13 42.08 331.88 36.76L335.45 36.76L335.45 49.36ZM351.05 49.36L353.72 49.36L348.26 34.66L345.51 34.66L340 49.36L342.67 49.36L343.94 45.62L349.73 45.62L351.05 49.36ZM396.85 34.66L396.85 49.36L401.57 49.36Q403.6 49.36 405 48.43Q405.17 48.32 405.32 48.19Q406.07 47.6 406.44 46.83Q406.81 46.07 406.81 45.14Q406.81 43.99 406.29 43.17Q406.13 42.91 405.9 42.67Q405.73 42.49 405.54 42.35Q404.71 41.69 403.48 41.55L403.48 41.51Q404.49 41.19 405.15 40.52Q405.3 40.37 405.43 40.19Q405.66 39.89 405.82 39.56Q406.14 38.87 406.14 38.02Q406.14 37.34 405.89 36.78Q405.58 36.1 404.9 35.59Q403.65 34.66 401.52 34.66L396.85 34.66ZM70.33 36.99Q71.19 36.55 72.28 36.55Q73.63 36.55 74.61 37.16Q75.13 37.49 75.54 37.99Q76.73 39.43 76.73 42.06Q76.73 44.62 75.51 46.05Q75.1 46.53 74.59 46.84Q73.58 47.48 72.17 47.48Q71.11 47.48 70.26 47.05Q69.53 46.67 68.95 45.98Q68.91 45.92 68.87 45.87Q67.72 44.39 67.72 42.03Q67.72 39.73 68.83 38.27Q68.91 38.16 68.99 38.06Q69.58 37.36 70.33 36.99ZM145.32 36.99Q146.19 36.55 147.27 36.55Q148.63 36.55 149.6 37.16Q150.12 37.49 150.53 37.99Q151.72 39.43 151.72 42.06Q151.72 44.62 150.5 46.05Q150.09 46.53 149.59 46.84Q148.57 47.48 147.17 47.48Q146.1 47.48 145.25 47.05Q144.52 46.67 143.95 45.98Q143.9 45.92 143.86 45.87Q142.72 44.39 142.72 42.03Q142.72 39.73 143.82 38.27Q143.9 38.16 143.98 38.06Q144.57 37.36 145.32 36.99ZM215.07 37.11Q215.99 36.55 217.24 36.55Q218.45 36.55 219.32 37.09Q219.86 37.43 220.28 37.98Q221.35 39.41 221.35 42.08Q221.35 44.66 220.24 46.07Q219.86 46.54 219.38 46.85Q218.43 47.48 217.08 47.48Q215.88 47.48 215.01 46.94Q214.45 46.6 214.02 46.03Q212.93 44.59 212.93 41.98Q212.93 39.45 214.08 38Q214.51 37.45 215.07 37.11ZM385.1 36.99Q385.96 36.55 387.05 36.55Q388.4 36.55 389.38 37.16Q389.9 37.49 390.31 37.99Q391.5 39.43 391.5 42.06Q391.5 44.62 390.28 46.05Q389.87 46.53 389.36 46.84Q388.35 47.48 386.94 47.48Q385.88 47.48 385.03 47.05Q384.3 46.67 383.72 45.98Q383.68 45.92 383.64 45.87Q382.49 44.39 382.49 42.03Q382.49 39.73 383.6 38.27Q383.68 38.16 383.76 38.06Q384.35 37.36 385.1 36.99ZM399.28 40.8L399.28 36.62L401.06 36.62Q402.67 36.62 403.25 37.39Q403.58 37.83 403.58 38.5Q403.58 39.28 403.22 39.81Q403.07 40.03 402.86 40.2Q402.13 40.8 400.86 40.8L399.28 40.8ZM49.1 36.66L49.1 41.38L47.14 41.38Q45.98 41.38 45.27 40.82Q45.21 40.78 45.17 40.74Q44.94 40.54 44.79 40.3Q44.43 39.75 44.43 38.97Q44.43 38.12 44.84 37.57Q44.96 37.4 45.12 37.26Q45.81 36.66 47.06 36.66L49.1 36.66ZM250.95 42.04L250.95 36.67L252.73 36.67Q254.46 36.67 255.2 37.52Q255.74 38.16 255.74 39.26Q255.74 40.28 255.26 40.94Q255.11 41.14 254.92 41.31Q254.1 42.04 252.53 42.04L250.95 42.04ZM17.95 37.76L19.99 43.63L15.49 43.63L17.51 37.76Q17.62 37.43 17.72 36.84L17.76 36.84Q17.86 37.48 17.95 37.76ZM347.04 37.76L349.08 43.63L344.58 43.63L346.6 37.76Q346.71 37.43 346.8 36.84L346.84 36.84Q346.95 37.48 347.04 37.76ZM194.59 47.37L194.59 42.55L196.63 42.55Q198.31 42.55 199 43.38Q199.48 43.95 199.48 44.92Q199.48 45.8 199.07 46.38Q198.93 46.57 198.76 46.73Q198.03 47.37 196.7 47.37L194.59 47.37ZM278.88 47.37L278.88 42.55L280.99 42.55Q282.6 42.55 283.28 43.35Q283.77 43.93 283.77 44.92Q283.77 45.8 283.36 46.38Q283.22 46.57 283.05 46.73Q282.32 47.37 280.99 47.37L278.88 47.37ZM399.28 47.41L399.28 42.76L401.05 42.76Q403.13 42.76 403.84 43.75Q404.21 44.26 404.21 45.04Q404.21 45.79 403.87 46.33Q403.71 46.58 403.47 46.78Q402.73 47.41 401.36 47.41L399.28 47.41Z" fill="#0095DA" fill-opacity="1.000000" fill-rule="evenodd"/>
    </g>
</svg>
