<svg width="545.312500" height="59.400002" viewBox="0 0 545.312 59.4" fill="none" xmlns="http://www.w3.org/2000/svg" xmlns:xlink="http://www.w3.org/1999/xlink">
    <desc>
        Created with Pixso.
    </desc>
    <defs/>
    <rect id="Default_Text" width="545.312500" height="59.399994" transform="translate(0.000000 0.000008)" fill="#FFFFFF" fill-opacity="0"/>
    <rect id="Layer_1-2" width="545.312561" height="59.399998" transform="translate(0.000000 0.000008)" fill="#FFFFFF" fill-opacity="0"/>
    <g style="mix-blend-mode:normal">
        <path id="Контур 76" d="M5.01 5.7L10.51 20.5L16.11 5.7L20.21 5.7L20.21 24.9L17.11 24.9L17.11 18.4L17.41 10.1L17.31 10.1L11.61 25L9.41 25L3.91 10L4.11 18.29L4.11 24.8L0.91 24.8L0.91 5.7L5.01 5.7Z" fill="#0095DA" fill-opacity="1.000000" fill-rule="nonzero"/>
        <path id="Контур 76" d="M10.51 20.5L16.11 5.7L20.21 5.7L20.21 24.9L17.11 24.9L17.11 18.4L17.41 10.1L17.31 10.1L11.61 25L9.41 25L3.91 10L4.11 18.29L4.11 24.8L0.91 24.8L0.91 5.7L5.01 5.7L10.51 20.5Z" stroke="#707070" stroke-opacity="0" stroke-width="1.000000"/>
    </g>
    <g style="mix-blend-mode:normal">
        <path id="Контур 77" d="M39.51 17C39.61 19.2 38.81 21.3 37.31 22.8C35.81 24.3 33.71 25.2 31.61 25.1C29.51 25.2 27.41 24.3 26.01 22.8C24.51 21.2 23.81 19.1 23.81 17L23.81 13.5C23.71 11.3 24.51 9.3 26.01 7.7C27.41 6.2 29.51 5.3 31.61 5.4C33.81 5.3 35.81 6.2 37.31 7.7C38.81 9.3 39.61 11.4 39.51 13.5L39.51 17ZM36.31 13.5C36.41 12.1 35.91 10.7 35.01 9.6C34.21 8.6 32.91 8 31.51 8C30.21 7.9 29.01 8.5 28.21 9.5C27.31 10.6 26.91 12 27.01 13.4L27.01 17C26.91 18.4 27.41 19.79 28.21 21C29.01 22 30.21 22.6 31.61 22.5C32.91 22.6 34.21 22 35.11 21C36.01 19.9 36.41 18.4 36.41 17L36.31 13.5Z" fill="#0095DA" fill-opacity="1.000000" fill-rule="nonzero"/>
        <path id="Контур 77" d="M37.31 22.8C35.81 24.3 33.71 25.2 31.61 25.1C29.51 25.2 27.41 24.3 26.01 22.8C24.51 21.2 23.81 19.1 23.81 17L23.81 13.5C23.71 11.3 24.51 9.3 26.01 7.7C27.41 6.2 29.51 5.3 31.61 5.4C33.81 5.3 35.81 6.2 37.31 7.7C38.81 9.3 39.61 11.4 39.51 13.5L39.51 17C39.61 19.2 38.81 21.3 37.31 22.8ZM35.01 9.6C34.21 8.6 32.91 8 31.51 8C30.21 7.9 29.01 8.5 28.21 9.5C27.31 10.6 26.91 12 27.01 13.4L27.01 17C26.91 18.4 27.41 19.79 28.21 21C29.01 22 30.21 22.6 31.61 22.5C32.91 22.6 34.21 22 35.11 21C36.01 19.9 36.41 18.4 36.41 17L36.31 13.5C36.41 12.1 35.91 10.7 35.01 9.6Z" stroke="#707070" stroke-opacity="0" stroke-width="1.000000"/>
    </g>
    <g style="mix-blend-mode:normal">
        <path id="Контур 78" d="M57.01 18.5C57.11 20.29 56.41 22.1 55.11 23.3C53.61 24.6 51.81 25.2 49.81 25.1C47.71 25.2 45.71 24.3 44.31 22.8C42.91 21.2 42.11 19.1 42.21 17L42.21 13.3C42.11 11.2 42.91 9.1 44.31 7.5C45.71 6 47.71 5.2 49.71 5.2C51.61 5.1 53.61 5.7 55.11 7C56.41 8.2 57.11 10 57.01 11.8L57.01 11.9L53.91 11.9C54.11 9.89 52.71 8 50.61 7.8C50.31 7.8 50.01 7.8 49.81 7.8C48.61 7.8 47.41 8.3 46.71 9.39C45.91 10.5 45.51 11.9 45.61 13.3L45.61 17C45.51 18.4 45.91 19.79 46.81 20.9C47.51 21.9 48.71 22.5 50.01 22.5C51.11 22.6 52.21 22.2 53.01 21.4C53.71 20.6 54.11 19.5 54.01 18.4L57.01 18.5Z" fill="#0095DA" fill-opacity="1.000000" fill-rule="nonzero"/>
        <path id="Контур 78" d="M55.11 23.3C53.61 24.6 51.81 25.2 49.81 25.1C47.71 25.2 45.71 24.3 44.31 22.8C42.91 21.2 42.11 19.1 42.21 17L42.21 13.3C42.11 11.2 42.91 9.1 44.31 7.5C45.71 6 47.71 5.2 49.71 5.2C51.61 5.1 53.61 5.7 55.11 7C56.41 8.2 57.11 10 57.01 11.8L57.01 11.9L53.91 11.9C54.11 9.89 52.71 8 50.61 7.8C50.31 7.8 50.01 7.8 49.81 7.8C48.61 7.8 47.41 8.3 46.71 9.39C45.91 10.5 45.51 11.9 45.61 13.3L45.61 17C45.51 18.4 45.91 19.79 46.81 20.9C47.51 21.9 48.71 22.5 50.01 22.5C51.11 22.6 52.21 22.2 53.01 21.4C53.71 20.6 54.11 19.5 54.01 18.4L57.01 18.5C57.11 20.29 56.41 22.1 55.11 23.3Z" stroke="#707070" stroke-opacity="0" stroke-width="1.000000"/>
    </g>
    <g style="mix-blend-mode:normal">
        <path id="Контур 79" d="M65.51 16.6L63.31 16.6L63.31 24.9L60.11 24.9L60.11 5.7L63.31 5.7L63.31 13.8L65.11 13.8L71.11 5.7L74.91 5.7L67.91 14.9L75.41 24.9L71.51 24.9L65.51 16.6Z" fill="#0095DA" fill-opacity="1.000000" fill-rule="nonzero"/>
        <path id="Контур 79" d="M63.31 16.6L63.31 24.9L60.11 24.9L60.11 5.7L63.31 5.7L63.31 13.8L65.11 13.8L71.11 5.7L74.91 5.7L67.91 14.9L75.41 24.9L71.51 24.9L65.51 16.6L63.31 16.6Z" stroke="#707070" stroke-opacity="0" stroke-width="1.000000"/>
    </g>
    <g style="mix-blend-mode:normal">
        <path id="Контур 80" d="M91.91 17C92.01 19.2 91.21 21.3 89.71 22.8C88.21 24.3 86.11 25.2 84.01 25.1C81.91 25.2 79.81 24.3 78.41 22.8C76.91 21.2 76.21 19.1 76.21 17L76.21 13.5C76.11 11.3 76.91 9.3 78.41 7.7C79.81 6.2 81.91 5.3 84.01 5.4C86.21 5.3 88.21 6.2 89.71 7.7C91.21 9.3 92.01 11.4 91.91 13.5L91.91 17ZM88.71 13.5C88.81 12.1 88.31 10.7 87.41 9.6C86.61 8.6 85.31 8 83.91 8C82.61 7.9 81.41 8.5 80.61 9.5C79.71 10.6 79.31 12 79.41 13.4L79.41 17C79.31 18.4 79.81 19.79 80.61 21C81.41 22 82.61 22.6 84.01 22.5C85.31 22.6 86.61 22 87.51 21C88.41 19.9 88.81 18.4 88.81 17L88.71 13.5Z" fill="#0095DA" fill-opacity="1.000000" fill-rule="nonzero"/>
        <path id="Контур 80" d="M89.71 22.8C88.21 24.3 86.11 25.2 84.01 25.1C81.91 25.2 79.81 24.3 78.41 22.8C76.91 21.2 76.21 19.1 76.21 17L76.21 13.5C76.11 11.3 76.91 9.3 78.41 7.7C79.81 6.2 81.91 5.3 84.01 5.4C86.21 5.3 88.21 6.2 89.71 7.7C91.21 9.3 92.01 11.4 91.91 13.5L91.91 17C92.01 19.2 91.21 21.3 89.71 22.8ZM87.41 9.6C86.61 8.6 85.31 8 83.91 8C82.61 7.9 81.41 8.5 80.61 9.5C79.71 10.6 79.31 12 79.41 13.4L79.41 17C79.31 18.4 79.81 19.79 80.61 21C81.41 22 82.61 22.6 84.01 22.5C85.31 22.6 86.61 22 87.51 21C88.41 19.9 88.81 18.4 88.81 17L88.71 13.5C88.81 12.1 88.31 10.7 87.41 9.6Z" stroke="#707070" stroke-opacity="0" stroke-width="1.000000"/>
    </g>
    <g style="mix-blend-mode:normal">
        <path id="Контур 81" d="M95.41 24.9L95.41 5.7L101.81 5.7C103.61 5.6 105.31 6.1 106.81 7C108.01 7.9 108.71 9.4 108.61 10.9C108.61 11.7 108.31 12.6 107.81 13.2C107.31 13.9 106.51 14.4 105.71 14.7C106.81 14.9 107.71 15.5 108.31 16.29C108.91 17.2 109.21 18.2 109.21 19.2C109.31 20.8 108.61 22.3 107.41 23.3C106.01 24.3 104.31 24.8 102.51 24.7L95.41 24.9ZM98.61 13.8L102.11 13.8C102.91 13.8 103.81 13.6 104.51 13.1C105.11 12.6 105.41 11.9 105.41 11.1C105.51 10.3 105.11 9.5 104.51 9C103.71 8.5 102.81 8.2 101.81 8.3L98.71 8.3L98.61 13.8ZM98.61 16.2L98.61 22.3L102.61 22.3C103.51 22.4 104.41 22.1 105.21 21.5C105.81 20.9 106.11 20.1 106.11 19.29C106.21 18.4 105.91 17.6 105.31 16.9C104.71 16.29 103.81 16 103.01 16.1L98.61 16.2Z" fill="#0095DA" fill-opacity="1.000000" fill-rule="nonzero"/>
        <path id="Контур 81" d="M95.41 5.7L101.81 5.7C103.61 5.6 105.31 6.1 106.81 7C108.01 7.9 108.71 9.4 108.61 10.9C108.61 11.7 108.31 12.6 107.81 13.2C107.31 13.9 106.51 14.4 105.71 14.7C106.81 14.9 107.71 15.5 108.31 16.29C108.91 17.2 109.21 18.2 109.21 19.2C109.31 20.8 108.61 22.3 107.41 23.3C106.01 24.3 104.31 24.8 102.51 24.7L95.41 24.9L95.41 5.7ZM102.11 13.8C102.91 13.8 103.81 13.6 104.51 13.1C105.11 12.6 105.41 11.9 105.41 11.1C105.51 10.3 105.11 9.5 104.51 9C103.71 8.5 102.81 8.2 101.81 8.3L98.71 8.3L98.61 13.8L102.11 13.8ZM98.61 22.3L102.61 22.3C103.51 22.4 104.41 22.1 105.21 21.5C105.81 20.9 106.11 20.1 106.11 19.29C106.21 18.4 105.91 17.6 105.31 16.9C104.71 16.29 103.81 16 103.01 16.1L98.61 16.2L98.61 22.3Z" stroke="#707070" stroke-opacity="0" stroke-width="1.000000"/>
    </g>
    <g style="mix-blend-mode:normal">
        <path id="Контур 82" d="M126.71 18.5C126.81 20.4 126.11 22.1 124.81 23.3C123.41 24.6 121.51 25.2 119.51 25.1C117.41 25.2 115.51 24.3 114.11 22.8C112.71 21.2 111.91 19.1 112.01 17L112.01 13.4C111.91 11.3 112.71 9.2 114.11 7.6C115.51 6.1 117.51 5.3 119.51 5.3C121.41 5.2 123.41 5.8 124.91 7.1C126.21 8.3 126.91 10.1 126.81 11.9L126.81 12L123.71 12C123.91 10 122.51 8.1 120.41 7.9C120.11 7.9 119.81 7.9 119.61 7.9C118.41 7.9 117.21 8.39 116.51 9.5C115.71 10.6 115.31 12 115.31 13.4L115.31 17.1C115.21 18.5 115.61 19.9 116.41 21C117.11 22 118.31 22.6 119.61 22.6C120.71 22.7 121.81 22.3 122.61 21.5C123.31 20.7 123.71 19.6 123.61 18.5L126.71 18.5Z" fill="#0095DA" fill-opacity="1.000000" fill-rule="nonzero"/>
        <path id="Контур 82" d="M124.81 23.3C123.41 24.6 121.51 25.2 119.51 25.1C117.41 25.2 115.51 24.3 114.11 22.8C112.71 21.2 111.91 19.1 112.01 17L112.01 13.4C111.91 11.3 112.71 9.2 114.11 7.6C115.51 6.1 117.51 5.3 119.51 5.3C121.41 5.2 123.41 5.8 124.91 7.1C126.21 8.3 126.91 10.1 126.81 11.9L126.81 12L123.71 12C123.91 10 122.51 8.1 120.41 7.9C120.11 7.9 119.81 7.9 119.61 7.9C118.41 7.9 117.21 8.39 116.51 9.5C115.71 10.6 115.31 12 115.31 13.4L115.31 17.1C115.21 18.5 115.61 19.9 116.41 21C117.11 22 118.31 22.6 119.61 22.6C120.71 22.7 121.81 22.3 122.61 21.5C123.31 20.7 123.71 19.6 123.61 18.5L126.71 18.5C126.81 20.4 126.11 22.1 124.81 23.3Z" stroke="#707070" stroke-opacity="0" stroke-width="1.000000"/>
    </g>
    <g style="mix-blend-mode:normal">
        <path id="Контур 83" d="M135.31 16.6L133.11 16.6L133.11 24.9L129.91 24.9L129.91 5.7L133.11 5.7L133.11 13.8L134.91 13.8L140.91 5.7L144.71 5.7L137.71 14.9L145.21 24.9L141.31 24.9L135.31 16.6Z" fill="#0095DA" fill-opacity="1.000000" fill-rule="nonzero"/>
        <path id="Контур 83" d="M133.11 16.6L133.11 24.9L129.91 24.9L129.91 5.7L133.11 5.7L133.11 13.8L134.91 13.8L140.91 5.7L144.71 5.7L137.71 14.9L145.21 24.9L141.31 24.9L135.31 16.6L133.11 16.6Z" stroke="#707070" stroke-opacity="0" stroke-width="1.000000"/>
    </g>
    <g style="mix-blend-mode:normal">
        <path id="Контур 84" d="M159.01 5.7L162.21 5.7L162.21 24.9L159.01 24.9L159.01 11.1L158.91 11.1L150.41 24.9L147.21 24.9L147.21 5.7L150.41 5.7L150.41 19.4L150.51 19.4L159.01 5.7Z" fill="#0095DA" fill-opacity="1.000000" fill-rule="nonzero"/>
        <path id="Контур 84" d="M162.21 5.7L162.21 24.9L159.01 24.9L159.01 11.1L158.91 11.1L150.41 24.9L147.21 24.9L147.21 5.7L150.41 5.7L150.41 19.4L150.51 19.4L159.01 5.7L162.21 5.7Z" stroke="#707070" stroke-opacity="0" stroke-width="1.000000"/>
    </g>
    <g style="mix-blend-mode:normal">
        <path id="Контур 85" d="M178.11 5.7L181.31 5.7L181.31 24.9L178.11 24.9L178.11 11.1L178.01 11.1L169.51 24.9L166.31 24.9L166.31 5.7L169.51 5.7L169.51 19.4L169.61 19.4L178.11 5.7ZM178.01 0C178.11 1.1 177.71 2 176.91 2.7C175.11 4.1 172.61 4.1 170.71 2.7C169.91 2 169.51 1.1 169.61 0.09L169.61 0L172.11 0C172.11 0.5 172.21 0.9 172.51 1.2C173.31 1.9 174.41 1.9 175.11 1.2C175.41 0.9 175.61 0.4 175.51 0L178.01 0Z" fill="#0095DA" fill-opacity="1.000000" fill-rule="nonzero"/>
        <path id="Контур 85" d="M181.31 5.7L181.31 24.9L178.11 24.9L178.11 11.1L178.01 11.1L169.51 24.9L166.31 24.9L166.31 5.7L169.51 5.7L169.51 19.4L169.61 19.4L178.11 5.7L181.31 5.7ZM176.91 2.7C175.11 4.1 172.61 4.1 170.71 2.7C169.91 2 169.51 1.1 169.61 0.09L169.61 0L172.11 0C172.11 0.5 172.21 0.9 172.51 1.2C173.31 1.9 174.41 1.9 175.11 1.2C175.41 0.9 175.61 0.4 175.51 0L178.01 0C178.11 1.1 177.71 2 176.91 2.7Z" stroke="#707070" stroke-opacity="0" stroke-width="1.000000"/>
    </g>
    <g style="mix-blend-mode:normal">
        <path id="Контур 86" d="M202.61 20.4L195.11 20.4L193.61 24.9L190.41 24.9L197.41 5.7L200.41 5.7L207.41 24.9L204.11 24.9L202.61 20.4ZM196.01 17.7L201.71 17.7L198.91 9.5L198.81 9.5L196.01 17.7Z" fill="#0095DA" fill-opacity="1.000000" fill-rule="nonzero"/>
        <path id="Контур 86" d="M195.11 20.4L193.61 24.9L190.41 24.9L197.41 5.7L200.41 5.7L207.41 24.9L204.11 24.9L202.61 20.4L195.11 20.4ZM201.71 17.7L198.91 9.5L198.81 9.5L196.01 17.7L201.71 17.7Z" stroke="#707070" stroke-opacity="0" stroke-width="1.000000"/>
    </g>
    <g style="mix-blend-mode:normal">
        <path id="Контур 87" d="M209.61 24.9L209.61 5.7L216.01 5.7C217.81 5.6 219.51 6.1 221.01 7C222.21 7.9 222.91 9.4 222.81 10.9C222.81 11.7 222.51 12.6 222.01 13.2C221.51 13.9 220.71 14.4 219.91 14.7C221.01 14.9 221.91 15.5 222.51 16.29C223.11 17.2 223.41 18.2 223.41 19.2C223.51 20.8 222.81 22.3 221.61 23.3C220.21 24.3 218.51 24.8 216.71 24.7L209.61 24.9ZM212.81 13.8L216.31 13.8C217.11 13.8 218.01 13.6 218.71 13.1C219.31 12.6 219.61 11.9 219.61 11.1C219.71 10.3 219.31 9.5 218.71 9C217.91 8.5 217.01 8.2 216.01 8.3L212.81 8.3L212.81 13.8ZM212.81 16.2L212.81 22.3L216.81 22.3C217.71 22.4 218.61 22.1 219.41 21.5C220.01 20.9 220.41 20.1 220.31 19.29C220.41 18.4 220.11 17.6 219.51 16.9C218.91 16.29 218.01 16 217.11 16.1L212.81 16.2Z" fill="#0095DA" fill-opacity="1.000000" fill-rule="nonzero"/>
        <path id="Контур 87" d="M209.61 5.7L216.01 5.7C217.81 5.6 219.51 6.1 221.01 7C222.21 7.9 222.91 9.4 222.81 10.9C222.81 11.7 222.51 12.6 222.01 13.2C221.51 13.9 220.71 14.4 219.91 14.7C221.01 14.9 221.91 15.5 222.51 16.29C223.11 17.2 223.41 18.2 223.41 19.2C223.51 20.8 222.81 22.3 221.61 23.3C220.21 24.3 218.51 24.8 216.71 24.7L209.61 24.9L209.61 5.7ZM216.31 13.8C217.11 13.8 218.01 13.6 218.71 13.1C219.31 12.6 219.61 11.9 219.61 11.1C219.71 10.3 219.31 9.5 218.71 9C217.91 8.5 217.01 8.2 216.01 8.3L212.81 8.3L212.81 13.8L216.31 13.8ZM212.81 22.3L216.81 22.3C217.71 22.4 218.61 22.1 219.41 21.5C220.01 20.9 220.41 20.1 220.31 19.29C220.41 18.4 220.11 17.6 219.51 16.9C218.91 16.29 218.01 16 217.11 16.1L212.81 16.2L212.81 22.3Z" stroke="#707070" stroke-opacity="0" stroke-width="1.000000"/>
    </g>
    <g style="mix-blend-mode:normal">
        <path id="Контур 88" d="M238.61 5.7L241.81 5.7L241.81 24.9L238.61 24.9L238.61 11.1L238.51 11.1L230.11 24.9L226.91 24.9L226.91 5.7L230.11 5.7L230.11 19.4L230.21 19.4L238.61 5.7Z" fill="#0095DA" fill-opacity="1.000000" fill-rule="nonzero"/>
        <path id="Контур 88" d="M241.81 5.7L241.81 24.9L238.61 24.9L238.61 11.1L238.51 11.1L230.11 24.9L226.91 24.9L226.91 5.7L230.11 5.7L230.11 19.4L230.21 19.4L238.61 5.7L241.81 5.7Z" stroke="#707070" stroke-opacity="0" stroke-width="1.000000"/>
    </g>
    <g style="mix-blend-mode:normal">
        <path id="Контур 89" d="M256.41 20.4L248.91 20.4L247.41 24.9L244.11 24.9L251.11 5.7L254.11 5.7L261.11 24.9L257.81 24.9L256.41 20.4ZM249.81 17.7L255.51 17.7L252.71 9.5L252.61 9.5L249.81 17.7Z" fill="#0095DA" fill-opacity="1.000000" fill-rule="nonzero"/>
        <path id="Контур 89" d="M248.91 20.4L247.41 24.9L244.11 24.9L251.11 5.7L254.11 5.7L261.11 24.9L257.81 24.9L256.41 20.4L248.91 20.4ZM255.51 17.7L252.71 9.5L252.61 9.5L249.81 17.7L255.51 17.7Z" stroke="#707070" stroke-opacity="0" stroke-width="1.000000"/>
    </g>
    <g style="mix-blend-mode:normal">
        <path id="Контур 90" d="M263.51 5.7L266.71 5.7L266.71 22.3L275.31 22.3L275.31 5.7L278.51 5.7L278.51 22.3L281.11 22.3L281.11 29.6L277.91 29.6L277.91 24.9L263.51 24.9L263.51 5.7Z" fill="#0095DA" fill-opacity="1.000000" fill-rule="nonzero"/>
        <path id="Контур 90" d="M266.71 5.7L266.71 22.3L275.31 22.3L275.31 5.7L278.51 5.7L278.51 22.3L281.11 22.3L281.11 29.6L277.91 29.6L277.91 24.9L263.51 24.9L263.51 5.7L266.71 5.7Z" stroke="#707070" stroke-opacity="0" stroke-width="1.000000"/>
    </g>
    <g style="mix-blend-mode:normal">
        <path id="Контур 91" d="M295.91 5.7L299.11 5.7L299.11 24.9L295.91 24.9L295.91 11.1L295.81 11.1L287.31 24.9L284.11 24.9L284.11 5.7L287.31 5.7L287.31 19.4L287.41 19.4L295.91 5.7Z" fill="#0095DA" fill-opacity="1.000000" fill-rule="nonzero"/>
        <path id="Контур 91" d="M299.11 5.7L299.11 24.9L295.91 24.9L295.91 11.1L295.81 11.1L287.31 24.9L284.11 24.9L284.11 5.7L287.31 5.7L287.31 19.4L287.41 19.4L295.91 5.7L299.11 5.7Z" stroke="#707070" stroke-opacity="0" stroke-width="1.000000"/>
    </g>
    <g style="mix-blend-mode:normal">
        <path id="Контур 92" d="M318.31 17C318.41 19.2 317.61 21.3 316.11 22.8C314.61 24.4 312.51 25.2 310.41 25.1C308.31 25.2 306.21 24.3 304.81 22.8C303.31 21.2 302.51 19.1 302.61 17L302.61 13.5C302.51 11.4 303.31 9.3 304.71 7.7C306.11 6.2 308.21 5.3 310.31 5.4C312.51 5.3 314.61 6.2 316.11 7.7C317.61 9.3 318.41 11.4 318.31 13.5L318.31 17ZM315.11 13.5C315.21 12.1 314.71 10.7 313.81 9.6C313.01 8.5 311.71 8 310.31 8C309.01 7.9 307.81 8.5 307.01 9.5C306.11 10.6 305.71 12 305.81 13.4L305.81 17C305.71 18.4 306.21 19.79 307.01 21C307.81 22 309.01 22.6 310.31 22.5C311.61 22.6 312.91 22 313.81 21C314.71 19.9 315.21 18.4 315.11 17L315.11 13.5Z" fill="#0095DA" fill-opacity="1.000000" fill-rule="nonzero"/>
        <path id="Контур 92" d="M316.11 22.8C314.61 24.4 312.51 25.2 310.41 25.1C308.31 25.2 306.21 24.3 304.81 22.8C303.31 21.2 302.51 19.1 302.61 17L302.61 13.5C302.51 11.4 303.31 9.3 304.71 7.7C306.11 6.2 308.21 5.3 310.31 5.4C312.51 5.3 314.61 6.2 316.11 7.7C317.61 9.3 318.41 11.4 318.31 13.5L318.31 17C318.41 19.2 317.61 21.3 316.11 22.8ZM313.81 9.6C313.01 8.5 311.71 8 310.31 8C309.01 7.9 307.81 8.5 307.01 9.5C306.11 10.6 305.71 12 305.81 13.4L305.81 17C305.71 18.4 306.21 19.79 307.01 21C307.81 22 309.01 22.6 310.31 22.5C311.61 22.6 312.91 22 313.81 21C314.71 19.9 315.21 18.4 315.11 17L315.11 13.5C315.21 12.1 314.71 10.7 313.81 9.6Z" stroke="#707070" stroke-opacity="0" stroke-width="1.000000"/>
    </g>
    <g style="mix-blend-mode:normal">
        <path id="Контур 93" d="M336.71 24.9L333.51 24.9L333.51 16.7L324.91 16.7L324.91 24.9L321.71 24.9L321.71 5.7L324.91 5.7L324.91 14.1L333.51 14.1L333.51 5.7L336.71 5.7L336.71 24.9Z" fill="#0095DA" fill-opacity="1.000000" fill-rule="nonzero"/>
        <path id="Контур 93" d="M333.51 24.9L333.51 16.7L324.91 16.7L324.91 24.9L321.71 24.9L321.71 5.7L324.91 5.7L324.91 14.1L333.51 14.1L333.51 5.7L336.71 5.7L336.71 24.9L333.51 24.9Z" stroke="#707070" stroke-opacity="0" stroke-width="1.000000"/>
    </g>
    <g style="mix-blend-mode:normal">
        <path id="Контур 94" d="M355.91 24.9L352.71 24.9L352.71 16.7L344.11 16.7L344.11 24.9L340.91 24.9L340.91 5.7L344.11 5.7L344.11 14.1L352.71 14.1L352.71 5.7L355.91 5.7L355.91 24.9Z" fill="#0095DA" fill-opacity="1.000000" fill-rule="nonzero"/>
        <path id="Контур 94" d="M352.71 24.9L352.71 16.7L344.11 16.7L344.11 24.9L340.91 24.9L340.91 5.7L344.11 5.7L344.11 14.1L352.71 14.1L352.71 5.7L355.91 5.7L355.91 24.9L352.71 24.9Z" stroke="#707070" stroke-opacity="0" stroke-width="1.000000"/>
    </g>
    <g style="mix-blend-mode:normal">
        <path id="Контур 95" d="M363.41 12.8L367.51 12.8C369.31 12.7 371.11 13.3 372.51 14.4C373.71 15.5 374.41 17.1 374.31 18.7C374.41 20.4 373.71 22 372.51 23.1C371.11 24.3 369.31 24.9 367.51 24.8L360.21 24.8L360.21 5.7L363.41 5.7L363.41 12.8ZM363.41 15.4L363.41 22.3L367.51 22.3C368.51 22.4 369.51 22 370.21 21.3C370.81 20.6 371.11 19.7 371.11 18.79C371.11 17.9 370.81 17 370.21 16.4C369.51 15.7 368.51 15.3 367.51 15.4L363.41 15.4ZM379.51 24.9L376.31 24.9L376.31 5.7L379.51 5.7L379.51 24.9Z" fill="#0095DA" fill-opacity="1.000000" fill-rule="nonzero"/>
        <path id="Контур 95" d="M367.51 12.8C369.31 12.7 371.11 13.3 372.51 14.4C373.71 15.5 374.41 17.1 374.31 18.7C374.41 20.4 373.71 22 372.51 23.1C371.11 24.3 369.31 24.9 367.51 24.8L360.21 24.8L360.21 5.7L363.41 5.7L363.41 12.8L367.51 12.8ZM363.41 22.3L367.51 22.3C368.51 22.4 369.51 22 370.21 21.3C370.81 20.6 371.11 19.7 371.11 18.79C371.11 17.9 370.81 17 370.21 16.4C369.51 15.7 368.51 15.3 367.51 15.4L363.41 15.4L363.41 22.3ZM376.31 24.9L376.31 5.7L379.51 5.7L379.51 24.9L376.31 24.9Z" stroke="#707070" stroke-opacity="0" stroke-width="1.000000"/>
    </g>
    <g style="mix-blend-mode:normal">
        <path id="Контур 96" d="M395.41 5.7L398.61 5.7L398.61 24.9L395.41 24.9L395.41 11.1L395.31 11.1L386.81 24.9L383.61 24.9L383.61 5.7L386.81 5.7L386.81 19.4L386.91 19.4L395.41 5.7ZM395.21 0C395.31 1.1 394.91 2 394.11 2.7C392.31 4.1 389.81 4.1 387.91 2.7C387.11 2 386.71 1.1 386.81 0.09L386.81 0L389.21 0C389.21 0.5 389.31 0.9 389.61 1.2C390.41 1.9 391.51 1.9 392.21 1.2C392.51 0.9 392.71 0.4 392.61 0L395.21 0Z" fill="#0095DA" fill-opacity="1.000000" fill-rule="nonzero"/>
        <path id="Контур 96" d="M398.61 5.7L398.61 24.9L395.41 24.9L395.41 11.1L395.31 11.1L386.81 24.9L383.61 24.9L383.61 5.7L386.81 5.7L386.81 19.4L386.91 19.4L395.41 5.7L398.61 5.7ZM394.11 2.7C392.31 4.1 389.81 4.1 387.91 2.7C387.11 2 386.71 1.1 386.81 0.09L386.81 0L389.21 0C389.21 0.5 389.31 0.9 389.61 1.2C390.41 1.9 391.51 1.9 392.21 1.2C392.51 0.9 392.71 0.4 392.61 0L395.21 0C395.31 1.1 394.91 2 394.11 2.7Z" stroke="#707070" stroke-opacity="0" stroke-width="1.000000"/>
    </g>
    <g style="mix-blend-mode:normal">
        <path id="Контур 97" d="M421.21 5.7L424.41 5.7L424.41 24.9L421.21 24.9L421.21 11.1L412.61 24.9L409.41 24.9L409.41 5.7L412.61 5.7L412.61 19.4L421.21 5.7Z" fill="#0095DA" fill-opacity="1.000000" fill-rule="nonzero"/>
        <path id="Контур 97" d="M424.41 5.7L424.41 24.9L421.21 24.9L421.21 11.1L412.61 24.9L409.41 24.9L409.41 5.7L412.61 5.7L412.61 19.4L421.21 5.7L424.41 5.7Z" stroke="#707070" stroke-opacity="0" stroke-width="1.000000"/>
    </g>
    <g style="mix-blend-mode:normal">
        <path id="Контур 98" d="M443.61 24.9L440.41 24.9L440.41 16.7L431.81 16.7L431.81 24.9L428.61 24.9L428.61 5.7L431.81 5.7L431.81 14.1L440.41 14.1L440.41 5.7L443.61 5.7L443.61 24.9Z" fill="#0095DA" fill-opacity="1.000000" fill-rule="nonzero"/>
        <path id="Контур 98" d="M440.41 24.9L440.41 16.7L431.81 16.7L431.81 24.9L428.61 24.9L428.61 5.7L431.81 5.7L431.81 14.1L440.41 14.1L440.41 5.7L443.61 5.7L443.61 24.9L440.41 24.9Z" stroke="#707070" stroke-opacity="0" stroke-width="1.000000"/>
    </g>
    <g style="mix-blend-mode:normal">
        <path id="Контур 99" d="M461.81 18.5C461.91 20.4 461.21 22.1 459.91 23.3C458.51 24.6 456.61 25.2 454.61 25.1C452.51 25.2 450.51 24.4 449.11 22.8C447.71 21.2 446.91 19.1 447.01 17L447.01 13.3C446.91 11.2 447.71 9.1 449.11 7.5C450.51 6 452.51 5.2 454.51 5.2C456.41 5.1 458.41 5.7 459.91 7C461.21 8.2 461.91 10 461.81 11.8L461.81 11.9L458.71 11.9C458.91 9.89 457.51 8 455.41 7.8C455.11 7.8 454.81 7.8 454.61 7.8C453.41 7.8 452.21 8.3 451.51 9.39C450.71 10.5 450.31 11.9 450.31 13.3L450.31 17C450.21 18.4 450.61 19.79 451.51 20.9C452.21 21.9 453.41 22.5 454.71 22.5C455.81 22.6 456.91 22.2 457.71 21.4C458.41 20.6 458.81 19.5 458.71 18.4L461.81 18.5Z" fill="#0095DA" fill-opacity="1.000000" fill-rule="nonzero"/>
        <path id="Контур 99" d="M459.91 23.3C458.51 24.6 456.61 25.2 454.61 25.1C452.51 25.2 450.51 24.4 449.11 22.8C447.71 21.2 446.91 19.1 447.01 17L447.01 13.3C446.91 11.2 447.71 9.1 449.11 7.5C450.51 6 452.51 5.2 454.51 5.2C456.41 5.1 458.41 5.7 459.91 7C461.21 8.2 461.91 10 461.81 11.8L461.81 11.9L458.71 11.9C458.91 9.89 457.51 8 455.41 7.8C455.11 7.8 454.81 7.8 454.61 7.8C453.41 7.8 452.21 8.3 451.51 9.39C450.71 10.5 450.31 11.9 450.31 13.3L450.31 17C450.21 18.4 450.61 19.79 451.51 20.9C452.21 21.9 453.41 22.5 454.71 22.5C455.81 22.6 456.91 22.2 457.71 21.4C458.41 20.6 458.81 19.5 458.71 18.4L461.81 18.5C461.91 20.4 461.21 22.1 459.91 23.3Z" stroke="#707070" stroke-opacity="0" stroke-width="1.000000"/>
    </g>
    <g style="mix-blend-mode:normal">
        <path id="Контур 100" d="M477.71 8.3L471.91 8.3L471.91 24.9L468.71 24.9L468.71 8.3L462.91 8.3L462.91 5.7L477.71 5.7L477.71 8.3Z" fill="#0095DA" fill-opacity="1.000000" fill-rule="nonzero"/>
        <path id="Контур 100" d="M471.91 8.3L471.91 24.9L468.71 24.9L468.71 8.3L462.91 8.3L462.91 5.7L477.71 5.7L477.71 8.3L471.91 8.3Z" stroke="#707070" stroke-opacity="0" stroke-width="1.000000"/>
    </g>
    <g style="mix-blend-mode:normal">
        <path id="Контур 101" d="M491.91 5.7L495.11 5.7L495.11 24.9L491.91 24.9L491.91 11.1L483.31 24.9L480.11 24.9L480.11 5.7L483.31 5.7L483.31 19.4L491.91 5.7Z" fill="#0095DA" fill-opacity="1.000000" fill-rule="nonzero"/>
        <path id="Контур 101" d="M495.11 5.7L495.11 24.9L491.91 24.9L491.91 11.1L483.31 24.9L480.11 24.9L480.11 5.7L483.31 5.7L483.31 19.4L491.91 5.7L495.11 5.7Z" stroke="#707070" stroke-opacity="0" stroke-width="1.000000"/>
    </g>
    <g style="mix-blend-mode:normal">
        <path id="Контур 102" d="M512.41 8.3L506.61 8.3L506.61 24.9L503.41 24.9L503.41 8.3L497.61 8.3L497.61 5.7L512.41 5.7L512.41 8.3Z" fill="#0095DA" fill-opacity="1.000000" fill-rule="nonzero"/>
        <path id="Контур 102" d="M506.61 8.3L506.61 24.9L503.41 24.9L503.41 8.3L497.61 8.3L497.61 5.7L512.41 5.7L512.41 8.3L506.61 8.3Z" stroke="#707070" stroke-opacity="0" stroke-width="1.000000"/>
    </g>
    <g style="mix-blend-mode:normal">
        <path id="Контур 103" d="M520.91 14.4L521.51 16.29L525.61 5.8L529.11 5.8L522.51 21.6C522.11 22.6 521.51 23.6 520.71 24.4C519.81 25.1 518.71 25.4 517.61 25.3L516.81 25.3C516.61 25.3 516.41 25.3 516.21 25.3L516.21 22.8C516.31 22.8 516.51 22.8 516.71 22.8L517.31 22.8C517.81 22.8 518.31 22.7 518.81 22.3C519.21 21.9 519.51 21.4 519.71 20.9L520.11 20L513.51 5.9L517.01 5.9L520.91 14.4Z" fill="#0095DA" fill-opacity="1.000000" fill-rule="nonzero"/>
        <path id="Контур 103" d="M521.51 16.29L525.61 5.8L529.11 5.8L522.51 21.6C522.11 22.6 521.51 23.6 520.71 24.4C519.81 25.1 518.71 25.4 517.61 25.3L516.81 25.3C516.61 25.3 516.41 25.3 516.21 25.3L516.21 22.8C516.31 22.8 516.51 22.8 516.71 22.8L517.31 22.8C517.81 22.8 518.31 22.7 518.81 22.3C519.21 21.9 519.51 21.4 519.71 20.9L520.11 20L513.51 5.9L517.01 5.9L520.91 14.4L521.51 16.29Z" stroke="#707070" stroke-opacity="0" stroke-width="1.000000"/>
    </g>
    <g style="mix-blend-mode:normal">
        <path id="Контур 104" d="M545.31 8.3L539.51 8.3L539.51 24.9L536.31 24.9L536.31 8.3L530.51 8.3L530.51 5.7L545.31 5.7L545.31 8.3Z" fill="#0095DA" fill-opacity="1.000000" fill-rule="nonzero"/>
        <path id="Контур 104" d="M539.51 8.3L539.51 24.9L536.31 24.9L536.31 8.3L530.51 8.3L530.51 5.7L545.31 5.7L545.31 8.3L539.51 8.3Z" stroke="#707070" stroke-opacity="0" stroke-width="1.000000"/>
    </g>
    <g style="mix-blend-mode:normal">
        <path id="Контур 105" d="M0.01 49.1C-0.09 46.8 0.51 44.6 1.51 42.6C2.21 41.1 3.41 39.9 4.81 39.09L5.31 40.4C4.31 41.3 3.51 42.4 3.11 43.6C2.41 45.4 2.11 47.2 2.21 49.1L2.21 49.3C2.11 51.2 2.51 53.1 3.11 54.8C3.61 56.1 4.31 57.2 5.31 58.1L4.91 59.3C3.51 58.5 2.21 57.3 1.51 55.8C0.41 53.8 -0.09 51.5 0.01 49.3L0.01 49.1Z" fill="#0095DA" fill-opacity="1.000000" fill-rule="nonzero"/>
        <path id="Контур 105" d="M1.51 42.6C2.21 41.1 3.41 39.9 4.81 39.09L5.31 40.4C4.31 41.3 3.51 42.4 3.11 43.6C2.41 45.4 2.11 47.2 2.21 49.1L2.21 49.3C2.11 51.2 2.51 53.1 3.11 54.8C3.61 56.1 4.31 57.2 5.31 58.1L4.91 59.3C3.51 58.5 2.21 57.3 1.51 55.8C0.41 53.8 -0.09 51.5 0.01 49.3L0.01 49.1C-0.09 46.8 0.51 44.6 1.51 42.6Z" stroke="#707070" stroke-opacity="0" stroke-width="1.000000"/>
    </g>
    <g style="mix-blend-mode:normal">
        <path id="Контур 106" d="M18.01 54.9L15.61 54.9L15.61 48.8L9.21 48.8L9.21 54.9L6.81 54.9L6.81 40.7L9.21 40.7L9.21 46.9L15.61 46.9L15.61 40.7L18.01 40.7L18.01 54.9Z" fill="#0095DA" fill-opacity="1.000000" fill-rule="nonzero"/>
        <path id="Контур 106" d="M15.61 54.9L15.61 48.8L9.21 48.8L9.21 54.9L6.81 54.9L6.81 40.7L9.21 40.7L9.21 46.9L15.61 46.9L15.61 40.7L18.01 40.7L18.01 54.9L15.61 54.9Z" stroke="#707070" stroke-opacity="0" stroke-width="1.000000"/>
    </g>
    <g style="mix-blend-mode:normal">
        <path id="Контур 107" d="M28.61 51.6L23.01 51.6L21.91 54.9L19.51 54.9L24.71 40.7L26.91 40.7L32.01 54.9L29.61 54.9L28.61 51.6ZM23.71 49.6L27.91 49.6L25.81 43.5L25.71 43.5L23.71 49.6Z" fill="#0095DA" fill-opacity="1.000000" fill-rule="nonzero"/>
        <path id="Контур 107" d="M23.01 51.6L21.91 54.9L19.51 54.9L24.71 40.7L26.91 40.7L32.01 54.9L29.61 54.9L28.61 51.6L23.01 51.6ZM27.91 49.6L25.81 43.5L25.71 43.5L23.71 49.6L27.91 49.6Z" stroke="#707070" stroke-opacity="0" stroke-width="1.000000"/>
    </g>
    <g style="mix-blend-mode:normal">
        <path id="Контур 108" d="M33.71 40.7L36.11 40.7L36.11 53L42.51 53L42.51 40.7L44.91 40.7L44.91 53L46.81 53L46.81 58.4L44.41 58.4L44.41 54.9L33.71 54.9L33.71 40.7Z" fill="#0095DA" fill-opacity="1.000000" fill-rule="nonzero"/>
        <path id="Контур 108" d="M36.11 40.7L36.11 53L42.51 53L42.51 40.7L44.91 40.7L44.91 53L46.81 53L46.81 58.4L44.41 58.4L44.41 54.9L33.71 54.9L33.71 40.7L36.11 40.7Z" stroke="#707070" stroke-opacity="0" stroke-width="1.000000"/>
    </g>
    <g style="mix-blend-mode:normal">
        <path id="Контур 109" d="M57.41 40.7L59.81 40.7L59.81 54.9L57.41 54.9L57.41 44.7L57.31 44.7L51.11 54.9L48.71 54.9L48.71 40.7L51.11 40.7L51.11 50.9L51.21 50.9L57.41 40.7Z" fill="#0095DA" fill-opacity="1.000000" fill-rule="nonzero"/>
        <path id="Контур 109" d="M59.81 40.7L59.81 54.9L57.41 54.9L57.41 44.7L57.31 44.7L51.11 54.9L48.71 54.9L48.71 40.7L51.11 40.7L51.11 50.9L51.21 50.9L57.41 40.7L59.81 40.7Z" stroke="#707070" stroke-opacity="0" stroke-width="1.000000"/>
    </g>
    <g style="mix-blend-mode:normal">
        <path id="Контур 110" d="M73.71 49C73.81 50.6 73.21 52.2 72.11 53.4C71.01 54.6 69.51 55.2 67.91 55.1C66.31 55.2 64.81 54.5 63.71 53.4C62.61 52.2 62.01 50.6 62.11 49L62.11 46.5C62.01 44.9 62.61 43.4 63.71 42.2C64.81 41.1 66.31 40.4 67.81 40.5C69.41 40.4 71.01 41.1 72.11 42.2C73.21 43.4 73.81 44.9 73.71 46.5L73.71 49ZM71.41 46.4C71.41 45.3 71.11 44.3 70.51 43.5C69.91 42.7 68.91 42.3 67.91 42.3C66.91 42.3 66.01 42.7 65.41 43.5C64.81 44.3 64.41 45.4 64.51 46.4L64.51 49C64.51 50.1 64.81 51.1 65.41 51.9C66.01 52.7 66.91 53.1 67.91 53.1C68.91 53.2 69.81 52.7 70.51 52C71.21 51.2 71.51 50.1 71.41 49L71.41 46.4Z" fill="#0095DA" fill-opacity="1.000000" fill-rule="nonzero"/>
        <path id="Контур 110" d="M72.11 53.4C71.01 54.6 69.51 55.2 67.91 55.1C66.31 55.2 64.81 54.5 63.71 53.4C62.61 52.2 62.01 50.6 62.11 49L62.11 46.5C62.01 44.9 62.61 43.4 63.71 42.2C64.81 41.1 66.31 40.4 67.81 40.5C69.41 40.4 71.01 41.1 72.11 42.2C73.21 43.4 73.81 44.9 73.71 46.5L73.71 49C73.81 50.6 73.21 52.2 72.11 53.4ZM70.51 43.5C69.91 42.7 68.91 42.3 67.91 42.3C66.91 42.3 66.01 42.7 65.41 43.5C64.81 44.3 64.41 45.4 64.51 46.4L64.51 49C64.51 50.1 64.81 51.1 65.41 51.9C66.01 52.7 66.91 53.1 67.91 53.1C68.91 53.2 69.81 52.7 70.51 52C71.21 51.2 71.51 50.1 71.41 49L71.41 46.4C71.41 45.3 71.11 44.3 70.51 43.5Z" stroke="#707070" stroke-opacity="0" stroke-width="1.000000"/>
    </g>
    <g style="mix-blend-mode:normal">
        <path id="Контур 111" d="M87.21 54.9L84.81 54.9L84.81 48.8L78.41 48.8L78.41 54.9L76.11 54.9L76.11 40.7L78.51 40.7L78.51 46.9L84.91 46.9L84.91 40.7L87.31 40.7L87.21 54.9Z" fill="#0095DA" fill-opacity="1.000000" fill-rule="nonzero"/>
        <path id="Контур 111" d="M84.81 54.9L84.81 48.8L78.41 48.8L78.41 54.9L76.11 54.9L76.11 40.7L78.51 40.7L78.51 46.9L84.91 46.9L84.91 40.7L87.31 40.7L87.21 54.9L84.81 54.9Z" stroke="#707070" stroke-opacity="0" stroke-width="1.000000"/>
    </g>
    <g style="mix-blend-mode:normal">
        <path id="Контур 112" d="M97.81 51.6L92.21 51.6L91.11 54.9L88.71 54.9L93.91 40.7L96.11 40.7L101.31 54.9L98.91 54.9L97.81 51.6ZM92.91 49.6L97.11 49.6L95.11 43.5L95.01 43.5L92.91 49.6Z" fill="#0095DA" fill-opacity="1.000000" fill-rule="nonzero"/>
        <path id="Контур 112" d="M92.21 51.6L91.11 54.9L88.71 54.9L93.91 40.7L96.11 40.7L101.31 54.9L98.91 54.9L97.81 51.6L92.21 51.6ZM97.11 49.6L95.11 43.5L95.01 43.5L92.91 49.6L97.11 49.6Z" stroke="#707070" stroke-opacity="0" stroke-width="1.000000"/>
    </g>
    <g style="mix-blend-mode:normal">
        <path id="Контур 113" d="M113.81 40.7L113.81 54.9L111.41 54.9L111.41 42.6L106.81 42.6L106.81 47.3C106.81 50 106.41 51.9 105.71 53.1C104.91 54.3 103.61 55 102.11 54.9L101.61 54.9L101.61 53L102.01 53C102.81 53 103.61 52.5 103.91 51.7C104.31 50.3 104.51 48.8 104.41 47.3L104.41 40.7L113.81 40.7Z" fill="#0095DA" fill-opacity="1.000000" fill-rule="nonzero"/>
        <path id="Контур 113" d="M113.81 54.9L111.41 54.9L111.41 42.6L106.81 42.6L106.81 47.3C106.81 50 106.41 51.9 105.71 53.1C104.91 54.3 103.61 55 102.11 54.9L101.61 54.9L101.61 53L102.01 53C102.81 53 103.61 52.5 103.91 51.7C104.31 50.3 104.51 48.8 104.41 47.3L104.41 40.7L113.81 40.7L113.81 54.9Z" stroke="#707070" stroke-opacity="0" stroke-width="1.000000"/>
    </g>
    <g style="mix-blend-mode:normal">
        <path id="Контур 114" d="M119.01 46.2L122.01 46.2C123.31 46.1 124.71 46.5 125.71 47.4C126.61 48.2 127.11 49.4 127.11 50.6C127.11 51.8 126.71 53 125.71 53.8C124.71 54.6 123.31 55.1 122.01 55L116.61 55L116.61 40.7L119.01 40.7L119.01 46.2ZM119.01 48.1L119.01 53L122.01 53C122.71 53 123.51 52.8 124.01 52.3C124.51 51.8 124.71 51.2 124.71 50.5C124.71 49.9 124.51 49.2 124.01 48.8C123.51 48.3 122.71 48.1 122.01 48.1L119.01 48.1Z" fill="#0095DA" fill-opacity="1.000000" fill-rule="nonzero"/>
        <path id="Контур 114" d="M122.01 46.2C123.31 46.1 124.71 46.5 125.71 47.4C126.61 48.2 127.11 49.4 127.11 50.6C127.11 51.8 126.71 53 125.71 53.8C124.71 54.6 123.31 55.1 122.01 55L116.61 55L116.61 40.7L119.01 40.7L119.01 46.2L122.01 46.2ZM119.01 53L122.01 53C122.71 53 123.51 52.8 124.01 52.3C124.51 51.8 124.71 51.2 124.71 50.5C124.71 49.9 124.51 49.2 124.01 48.8C123.51 48.3 122.71 48.1 122.01 48.1L119.01 48.1L119.01 53Z" stroke="#707070" stroke-opacity="0" stroke-width="1.000000"/>
    </g>
    <g style="mix-blend-mode:normal">
        <path id="Контур 115" d="M140.21 54.9L137.81 54.9L137.81 48.8L131.41 48.8L131.41 54.9L129.01 54.9L129.01 40.7L131.41 40.7L131.41 46.9L137.81 46.9L137.81 40.7L140.21 40.7L140.21 54.9Z" fill="#0095DA" fill-opacity="1.000000" fill-rule="nonzero"/>
        <path id="Контур 115" d="M137.81 54.9L137.81 48.8L131.41 48.8L131.41 54.9L129.01 54.9L129.01 40.7L131.41 40.7L131.41 46.9L137.81 46.9L137.81 40.7L140.21 40.7L140.21 54.9L137.81 54.9Z" stroke="#707070" stroke-opacity="0" stroke-width="1.000000"/>
    </g>
    <g style="mix-blend-mode:normal">
        <path id="Контур 116" d="M145.51 45.9L148.51 45.9C149.81 45.8 151.21 46.3 152.21 47.1C153.11 47.9 153.61 49.1 153.61 50.3C153.61 51.5 153.21 52.7 152.21 53.5C151.21 54.4 149.81 54.8 148.51 54.7L143.11 54.7L143.11 40.7L145.51 40.7L145.51 45.9ZM145.51 47.8L145.51 53L148.51 53C149.21 53.1 150.01 52.8 150.51 52.2C151.01 51.7 151.21 51 151.21 50.3C151.21 49.6 151.01 49 150.51 48.5C150.01 48 149.21 47.7 148.51 47.8L145.51 47.8ZM157.41 54.8L155.01 54.8L155.01 40.7L157.41 40.7L157.41 54.8Z" fill="#0095DA" fill-opacity="1.000000" fill-rule="nonzero"/>
        <path id="Контур 116" d="M148.51 45.9C149.81 45.8 151.21 46.3 152.21 47.1C153.11 47.9 153.61 49.1 153.61 50.3C153.61 51.5 153.21 52.7 152.21 53.5C151.21 54.4 149.81 54.8 148.51 54.7L143.11 54.7L143.11 40.7L145.51 40.7L145.51 45.9L148.51 45.9ZM145.51 53L148.51 53C149.21 53.1 150.01 52.8 150.51 52.2C151.01 51.7 151.21 51 151.21 50.3C151.21 49.6 151.01 49 150.51 48.5C150.01 48 149.21 47.7 148.51 47.8L145.51 47.8L145.51 53ZM155.01 54.8L155.01 40.7L157.41 40.7L157.41 54.8L155.01 54.8Z" stroke="#707070" stroke-opacity="0" stroke-width="1.000000"/>
    </g>
    <g style="mix-blend-mode:normal">
        <path id="Контур 117" d="M168.91 40.7L171.31 40.7L171.31 54.9L168.91 54.9L168.91 44.7L168.81 44.7L162.51 54.9L160.11 54.9L160.11 40.7L162.51 40.7L162.51 50.9L162.61 50.9L168.91 40.7ZM168.91 36.5C169.01 37.3 168.71 38 168.11 38.5C166.71 39.5 164.91 39.5 163.51 38.5C162.91 38 162.61 37.3 162.71 36.5L164.51 36.5C164.51 36.8 164.61 37.2 164.81 37.4C165.41 37.9 166.21 37.9 166.81 37.4C167.01 37.09 167.11 36.8 167.11 36.5L168.91 36.5Z" fill="#0095DA" fill-opacity="1.000000" fill-rule="nonzero"/>
        <path id="Контур 117" d="M171.31 40.7L171.31 54.9L168.91 54.9L168.91 44.7L168.81 44.7L162.51 54.9L160.11 54.9L160.11 40.7L162.51 40.7L162.51 50.9L162.61 50.9L168.91 40.7L171.31 40.7ZM168.11 38.5C166.71 39.5 164.91 39.5 163.51 38.5C162.91 38 162.61 37.3 162.71 36.5L164.51 36.5C164.51 36.8 164.61 37.2 164.81 37.4C165.41 37.9 166.21 37.9 166.81 37.4C167.01 37.09 167.11 36.8 167.11 36.5L168.91 36.5C169.01 37.3 168.71 38 168.11 38.5Z" stroke="#707070" stroke-opacity="0" stroke-width="1.000000"/>
    </g>
    <g style="mix-blend-mode:normal">
        <path id="Контур 118" d="M187.61 40.7L190.01 40.7L190.01 54.9L187.61 54.9L187.61 44.7L187.51 44.7L181.21 54.9L178.81 54.9L178.81 40.7L181.21 40.7L181.21 50.9L181.31 50.9L187.61 40.7Z" fill="#0095DA" fill-opacity="1.000000" fill-rule="nonzero"/>
        <path id="Контур 118" d="M190.01 40.7L190.01 54.9L187.61 54.9L187.61 44.7L187.51 44.7L181.21 54.9L178.81 54.9L178.81 40.7L181.21 40.7L181.21 50.9L181.31 50.9L187.61 40.7L190.01 40.7Z" stroke="#707070" stroke-opacity="0" stroke-width="1.000000"/>
    </g>
    <g style="mix-blend-mode:normal">
        <path id="Контур 119" d="M203.31 50.2C203.41 51.6 202.91 52.9 201.91 53.8C200.81 54.7 199.41 55.2 198.01 55.1C196.51 55.1 195.01 54.5 194.01 53.4C192.91 52.2 192.41 50.7 192.41 49.1L192.41 46.4C192.31 44.8 192.91 43.3 193.91 42.1C194.91 41 196.41 40.4 197.91 40.4C199.41 40.3 200.81 40.8 201.91 41.7C202.91 42.6 203.41 43.9 203.31 45.3L201.11 45.4C201.11 44.6 200.91 43.8 200.31 43.2C199.71 42.6 198.91 42.3 198.01 42.4C197.11 42.4 196.21 42.8 195.71 43.6C195.11 44.4 194.81 45.5 194.81 46.5L194.81 49.2C194.81 50.2 195.11 51.3 195.71 52.1C196.21 52.8 197.11 53.3 198.11 53.3C198.91 53.4 199.71 53.1 200.31 52.5C200.81 51.9 201.11 51.1 201.11 50.3L203.31 50.2Z" fill="#0095DA" fill-opacity="1.000000" fill-rule="nonzero"/>
        <path id="Контур 119" d="M201.91 53.8C200.81 54.7 199.41 55.2 198.01 55.1C196.51 55.1 195.01 54.5 194.01 53.4C192.91 52.2 192.41 50.7 192.41 49.1L192.41 46.4C192.31 44.8 192.91 43.3 193.91 42.1C194.91 41 196.41 40.4 197.91 40.4C199.41 40.3 200.81 40.8 201.91 41.7C202.91 42.6 203.41 43.9 203.31 45.3L201.11 45.4C201.11 44.6 200.91 43.8 200.31 43.2C199.71 42.6 198.91 42.3 198.01 42.4C197.11 42.4 196.21 42.8 195.71 43.6C195.11 44.4 194.81 45.5 194.81 46.5L194.81 49.2C194.81 50.2 195.11 51.3 195.71 52.1C196.21 52.8 197.11 53.3 198.11 53.3C198.91 53.4 199.71 53.1 200.31 52.5C200.81 51.9 201.11 51.1 201.11 50.3L203.31 50.2C203.41 51.6 202.91 52.9 201.91 53.8Z" stroke="#707070" stroke-opacity="0" stroke-width="1.000000"/>
    </g>
    <g style="mix-blend-mode:normal">
        <path id="Контур 120" d="M215.81 50.2C215.91 51.6 215.41 52.9 214.41 53.8C213.31 54.7 211.91 55.2 210.51 55.1C209.01 55.2 207.51 54.5 206.51 53.4C205.41 52.2 204.91 50.7 204.91 49.1L204.91 46.4C204.81 44.8 205.41 43.3 206.41 42.1C207.41 41 208.91 40.4 210.41 40.4C211.91 40.3 213.31 40.8 214.41 41.7C215.41 42.6 215.91 43.9 215.81 45.3L213.51 45.4C213.61 43.9 212.51 42.5 211.01 42.4C210.81 42.4 210.61 42.4 210.41 42.4C209.51 42.4 208.61 42.8 208.11 43.5C207.51 44.3 207.21 45.4 207.21 46.4L207.21 49.1C207.21 50.1 207.51 51.1 208.11 52C208.61 52.8 209.51 53.2 210.51 53.2C211.31 53.3 212.11 53 212.71 52.4C213.21 51.8 213.51 51 213.51 50.2L215.81 50.2Z" fill="#0095DA" fill-opacity="1.000000" fill-rule="nonzero"/>
        <path id="Контур 120" d="M214.41 53.8C213.31 54.7 211.91 55.2 210.51 55.1C209.01 55.2 207.51 54.5 206.51 53.4C205.41 52.2 204.91 50.7 204.91 49.1L204.91 46.4C204.81 44.8 205.41 43.3 206.41 42.1C207.41 41 208.91 40.4 210.41 40.4C211.91 40.3 213.31 40.8 214.41 41.7C215.41 42.6 215.91 43.9 215.81 45.3L213.51 45.4C213.61 43.9 212.51 42.5 211.01 42.4C210.81 42.4 210.61 42.4 210.41 42.4C209.51 42.4 208.61 42.8 208.11 43.5C207.51 44.3 207.21 45.4 207.21 46.4L207.21 49.1C207.21 50.1 207.51 51.1 208.11 52C208.61 52.8 209.51 53.2 210.51 53.2C211.31 53.3 212.11 53 212.71 52.4C213.21 51.8 213.51 51 213.51 50.2L215.81 50.2C215.91 51.6 215.41 52.9 214.41 53.8Z" stroke="#707070" stroke-opacity="0" stroke-width="1.000000"/>
    </g>
    <g style="mix-blend-mode:normal">
        <path id="Контур 121" d="M228.91 40.7L228.91 54.9L226.51 54.9L226.51 42.6L221.91 42.6L221.91 47.3C221.91 50 221.51 51.9 220.81 53.1C220.01 54.3 218.71 55 217.21 54.9L216.71 54.9L216.71 53L217.11 53C218.01 53.1 218.81 52.5 219.01 51.7C219.41 50.3 219.61 48.8 219.51 47.3L219.51 40.7L228.91 40.7Z" fill="#0095DA" fill-opacity="1.000000" fill-rule="nonzero"/>
        <path id="Контур 121" d="M228.91 54.9L226.51 54.9L226.51 42.6L221.91 42.6L221.91 47.3C221.91 50 221.51 51.9 220.81 53.1C220.01 54.3 218.71 55 217.21 54.9L216.71 54.9L216.71 53L217.11 53C218.01 53.1 218.81 52.5 219.01 51.7C219.41 50.3 219.61 48.8 219.51 47.3L219.51 40.7L228.91 40.7L228.91 54.9Z" stroke="#707070" stroke-opacity="0" stroke-width="1.000000"/>
    </g>
    <g style="mix-blend-mode:normal">
        <path id="Контур 122" d="M240.41 48.5L234.21 48.5L234.21 53L241.41 53L241.41 54.9L231.81 54.9L231.81 40.7L241.31 40.7L241.31 42.6L234.21 42.6L234.21 46.6L240.41 46.6L240.41 48.5Z" fill="#0095DA" fill-opacity="1.000000" fill-rule="nonzero"/>
        <path id="Контур 122" d="M234.21 48.5L234.21 53L241.41 53L241.41 54.9L231.81 54.9L231.81 40.7L241.31 40.7L241.31 42.6L234.21 42.6L234.21 46.6L240.41 46.6L240.41 48.5L234.21 48.5Z" stroke="#707070" stroke-opacity="0" stroke-width="1.000000"/>
    </g>
    <g style="mix-blend-mode:normal">
        <path id="Контур 123" d="M256.11 58.4L253.91 58.4L253.91 54.9L244.41 54.9L244.41 58.4L242.31 58.4L242.01 53L243.21 53C243.81 52.3 244.31 51.6 244.61 50.8C245.11 49.4 245.31 48 245.31 46.6L245.71 40.8L254.61 40.8L254.61 53L256.41 53L256.11 58.4ZM247.61 46.5C247.61 47.8 247.41 49.1 247.11 50.3C246.81 51.3 246.41 52.2 245.91 53L252.11 53L252.11 42.6L247.81 42.6L247.61 46.5Z" fill="#0095DA" fill-opacity="1.000000" fill-rule="nonzero"/>
        <path id="Контур 123" d="M253.91 58.4L253.91 54.9L244.41 54.9L244.41 58.4L242.31 58.4L242.01 53L243.21 53C243.81 52.3 244.31 51.6 244.61 50.8C245.11 49.4 245.31 48 245.31 46.6L245.71 40.8L254.61 40.8L254.61 53L256.41 53L256.11 58.4L253.91 58.4ZM247.11 50.3C246.81 51.3 246.41 52.2 245.91 53L252.11 53L252.11 42.6L247.81 42.6L247.61 46.5C247.61 47.8 247.41 49.1 247.11 50.3Z" stroke="#707070" stroke-opacity="0" stroke-width="1.000000"/>
    </g>
    <g style="mix-blend-mode:normal">
        <path id="Контур 124" d="M268.91 49C269.01 50.6 268.41 52.2 267.31 53.3C266.21 54.5 264.71 55.1 263.11 55C261.51 55.1 260.01 54.4 258.91 53.3C257.81 52.1 257.21 50.6 257.31 49L257.31 46.5C257.31 44.9 257.81 43.4 258.91 42.2C260.01 41.1 261.51 40.4 263.01 40.5C264.61 40.4 266.11 41.1 267.21 42.2C268.31 43.4 268.91 44.9 268.81 46.5L268.81 49L268.91 49ZM266.51 46.4C266.51 45.3 266.21 44.3 265.51 43.5C264.91 42.7 263.91 42.3 262.91 42.3C261.91 42.3 261.01 42.7 260.41 43.5C259.81 44.3 259.41 45.4 259.51 46.4L259.51 49C259.51 50.1 259.81 51.1 260.41 51.9C261.01 52.7 261.91 53.1 262.91 53.1C263.91 53.2 264.81 52.7 265.51 52C266.21 51.1 266.51 50.1 266.41 49L266.51 46.4Z" fill="#0095DA" fill-opacity="1.000000" fill-rule="nonzero"/>
        <path id="Контур 124" d="M267.31 53.3C266.21 54.5 264.71 55.1 263.11 55C261.51 55.1 260.01 54.4 258.91 53.3C257.81 52.1 257.21 50.6 257.31 49L257.31 46.5C257.31 44.9 257.81 43.4 258.91 42.2C260.01 41.1 261.51 40.4 263.01 40.5C264.61 40.4 266.11 41.1 267.21 42.2C268.31 43.4 268.91 44.9 268.81 46.5L268.81 49L268.91 49C269.01 50.6 268.41 52.2 267.31 53.3ZM265.51 43.5C264.91 42.7 263.91 42.3 262.91 42.3C261.91 42.3 261.01 42.7 260.41 43.5C259.81 44.3 259.41 45.4 259.51 46.4L259.51 49C259.51 50.1 259.81 51.1 260.41 51.9C261.01 52.7 261.91 53.1 262.91 53.1C263.91 53.2 264.81 52.7 265.51 52C266.21 51.1 266.51 50.1 266.41 49L266.51 46.4C266.51 45.3 266.21 44.3 265.51 43.5Z" stroke="#707070" stroke-opacity="0" stroke-width="1.000000"/>
    </g>
    <g style="mix-blend-mode:normal">
        <path id="Контур 125" d="M271.21 54.9L271.21 40.7L275.91 40.7C277.21 40.59 278.51 41 279.61 41.7C280.51 42.4 281.01 43.5 280.91 44.6C280.91 45.2 280.71 45.8 280.31 46.3C279.91 46.8 279.41 47.2 278.81 47.4C279.61 47.5 280.31 48 280.81 48.6C281.31 49.2 281.51 50 281.51 50.8C281.61 52 281.11 53.1 280.21 53.8C279.11 54.5 277.91 54.9 276.61 54.8L271.21 54.9ZM273.61 46.6L276.21 46.6C276.81 46.6 277.41 46.5 278.01 46.1C278.41 45.7 278.71 45.2 278.61 44.6C278.61 44 278.41 43.4 277.91 43C277.31 42.6 276.61 42.4 275.91 42.5L273.51 42.5L273.61 46.6ZM273.61 48.4L273.61 53L276.61 53C277.31 53 278.01 52.8 278.51 52.4C279.01 52 279.21 51.4 279.21 50.8C279.21 50.2 279.01 49.5 278.71 49C278.21 48.6 277.61 48.3 277.01 48.4L273.61 48.4Z" fill="#0095DA" fill-opacity="1.000000" fill-rule="nonzero"/>
        <path id="Контур 125" d="M271.21 40.7L275.91 40.7C277.21 40.59 278.51 41 279.61 41.7C280.51 42.4 281.01 43.5 280.91 44.6C280.91 45.2 280.71 45.8 280.31 46.3C279.91 46.8 279.41 47.2 278.81 47.4C279.61 47.5 280.31 48 280.81 48.6C281.31 49.2 281.51 50 281.51 50.8C281.61 52 281.11 53.1 280.21 53.8C279.11 54.5 277.91 54.9 276.61 54.8L271.21 54.9L271.21 40.7ZM276.21 46.6C276.81 46.6 277.41 46.5 278.01 46.1C278.41 45.7 278.71 45.2 278.61 44.6C278.61 44 278.41 43.4 277.91 43C277.31 42.6 276.61 42.4 275.91 42.5L273.51 42.5L273.61 46.6L276.21 46.6ZM273.61 53L276.61 53C277.31 53 278.01 52.8 278.51 52.4C279.01 52 279.21 51.4 279.21 50.8C279.21 50.2 279.01 49.5 278.71 49C278.21 48.6 277.61 48.3 277.01 48.4L273.61 48.4L273.61 53Z" stroke="#707070" stroke-opacity="0" stroke-width="1.000000"/>
    </g>
    <g style="mix-blend-mode:normal">
        <path id="Контур 126" d="M291.51 51.6L285.91 51.6L284.81 54.9L282.41 54.9L287.61 40.7L289.81 40.7L295.01 54.9L292.61 54.9L291.51 51.6ZM286.61 49.6L290.81 49.6L288.71 43.5L288.61 43.5L286.61 49.6Z" fill="#0095DA" fill-opacity="1.000000" fill-rule="nonzero"/>
        <path id="Контур 126" d="M285.91 51.6L284.81 54.9L282.41 54.9L287.61 40.7L289.81 40.7L295.01 54.9L292.61 54.9L291.51 51.6L285.91 51.6ZM290.81 49.6L288.71 43.5L288.61 43.5L286.61 49.6L290.81 49.6Z" stroke="#707070" stroke-opacity="0" stroke-width="1.000000"/>
    </g>
    <g style="mix-blend-mode:normal">
        <path id="Контур 127" d="M306.21 42.6L301.91 42.6L301.91 54.9L299.51 54.9L299.51 42.6L295.21 42.6L295.21 40.7L306.21 40.7L306.21 42.6Z" fill="#0095DA" fill-opacity="1.000000" fill-rule="nonzero"/>
        <path id="Контур 127" d="M301.91 42.6L301.91 54.9L299.51 54.9L299.51 42.6L295.21 42.6L295.21 40.7L306.21 40.7L306.21 42.6L301.91 42.6Z" stroke="#707070" stroke-opacity="0" stroke-width="1.000000"/>
    </g>
    <g style="mix-blend-mode:normal">
        <path id="Контур 128" d="M316.41 48.5L310.21 48.5L310.21 53L317.41 53L317.41 54.9L307.81 54.9L307.81 40.7L317.31 40.7L317.31 42.6L310.21 42.6L310.21 46.6L316.41 46.6L316.41 48.5Z" fill="#0095DA" fill-opacity="1.000000" fill-rule="nonzero"/>
        <path id="Контур 128" d="M310.21 48.5L310.21 53L317.41 53L317.41 54.9L307.81 54.9L307.81 40.7L317.31 40.7L317.31 42.6L310.21 42.6L310.21 46.6L316.41 46.6L316.41 48.5L310.21 48.5Z" stroke="#707070" stroke-opacity="0" stroke-width="1.000000"/>
    </g>
    <g style="mix-blend-mode:normal">
        <path id="Контур 129" d="M330.21 40.7L330.21 54.9L327.81 54.9L327.81 42.6L323.21 42.6L323.21 47.3C323.21 50 322.81 51.9 322.11 53.1C321.31 54.3 320.01 55 318.51 54.9L318.11 54.9L318.11 53L318.51 53C319.31 53 320.11 52.5 320.41 51.7C320.81 50.3 321.01 48.8 320.91 47.3L320.91 40.7L330.21 40.7Z" fill="#0095DA" fill-opacity="1.000000" fill-rule="nonzero"/>
        <path id="Контур 129" d="M330.21 54.9L327.81 54.9L327.81 42.6L323.21 42.6L323.21 47.3C323.21 50 322.81 51.9 322.11 53.1C321.31 54.3 320.01 55 318.51 54.9L318.11 54.9L318.11 53L318.51 53C319.31 53 320.11 52.5 320.41 51.7C320.81 50.3 321.01 48.8 320.91 47.3L320.91 40.7L330.21 40.7L330.21 54.9Z" stroke="#707070" stroke-opacity="0" stroke-width="1.000000"/>
    </g>
    <g style="mix-blend-mode:normal">
        <path id="Контур 130" d="M335.41 46.2L338.41 46.2C339.71 46.1 341.11 46.5 342.11 47.4C343.01 48.2 343.51 49.4 343.41 50.6C343.41 51.8 343.01 53 342.11 53.8C341.11 54.7 339.71 55.1 338.41 55L333.01 55L333.01 40.7L335.41 40.7L335.41 46.2ZM335.41 48.1L335.41 53L338.41 53C339.11 53.1 339.91 52.8 340.41 52.3C340.91 51.8 341.11 51.2 341.11 50.5C341.11 49.9 340.91 49.2 340.41 48.8C339.81 48.3 339.11 48.1 338.41 48.1L335.41 48.1Z" fill="#0095DA" fill-opacity="1.000000" fill-rule="nonzero"/>
        <path id="Контур 130" d="M338.41 46.2C339.71 46.1 341.11 46.5 342.11 47.4C343.01 48.2 343.51 49.4 343.41 50.6C343.41 51.8 343.01 53 342.11 53.8C341.11 54.7 339.71 55.1 338.41 55L333.01 55L333.01 40.7L335.41 40.7L335.41 46.2L338.41 46.2ZM335.41 53L338.41 53C339.11 53.1 339.91 52.8 340.41 52.3C340.91 51.8 341.11 51.2 341.11 50.5C341.11 49.9 340.91 49.2 340.41 48.8C339.81 48.3 339.11 48.1 338.41 48.1L335.41 48.1L335.41 53Z" stroke="#707070" stroke-opacity="0" stroke-width="1.000000"/>
    </g>
    <g style="mix-blend-mode:normal">
        <path id="Контур 131" d="M355.91 50.2C356.01 51.6 355.51 52.9 354.51 53.8C353.41 54.7 352.01 55.2 350.61 55.1C349.11 55.2 347.61 54.5 346.61 53.4C345.51 52.2 345.01 50.7 345.01 49.1L345.01 46.4C344.91 44.8 345.51 43.3 346.51 42.1C347.51 41 349.01 40.4 350.51 40.4C352.01 40.3 353.41 40.8 354.51 41.7C355.51 42.6 356.01 43.9 355.91 45.3L353.61 45.4C353.71 43.9 352.61 42.5 351.11 42.4C350.91 42.4 350.71 42.4 350.51 42.4C349.61 42.4 348.71 42.8 348.21 43.6C347.61 44.4 347.31 45.5 347.31 46.5L347.31 49.2C347.31 50.2 347.61 51.3 348.21 52.1C348.71 52.9 349.61 53.3 350.61 53.3C351.41 53.4 352.21 53.1 352.81 52.5C353.31 51.9 353.61 51.1 353.61 50.3L355.91 50.2Z" fill="#0095DA" fill-opacity="1.000000" fill-rule="nonzero"/>
        <path id="Контур 131" d="M354.51 53.8C353.41 54.7 352.01 55.2 350.61 55.1C349.11 55.2 347.61 54.5 346.61 53.4C345.51 52.2 345.01 50.7 345.01 49.1L345.01 46.4C344.91 44.8 345.51 43.3 346.51 42.1C347.51 41 349.01 40.4 350.51 40.4C352.01 40.3 353.41 40.8 354.51 41.7C355.51 42.6 356.01 43.9 355.91 45.3L353.61 45.4C353.71 43.9 352.61 42.5 351.11 42.4C350.91 42.4 350.71 42.4 350.51 42.4C349.61 42.4 348.71 42.8 348.21 43.6C347.61 44.4 347.31 45.5 347.31 46.5L347.31 49.2C347.31 50.2 347.61 51.3 348.21 52.1C348.71 52.9 349.61 53.3 350.61 53.3C351.41 53.4 352.21 53.1 352.81 52.5C353.31 51.9 353.61 51.1 353.61 50.3L355.91 50.2C356.01 51.6 355.51 52.9 354.51 53.8Z" stroke="#707070" stroke-opacity="0" stroke-width="1.000000"/>
    </g>
    <g style="mix-blend-mode:normal">
        <path id="Контур 132" d="M362.01 48.7L360.41 48.7L360.41 54.9L358.01 54.9L358.01 40.7L360.41 40.7L360.41 46.7L361.81 46.7L366.31 40.7L369.11 40.7L363.91 47.5L369.51 54.9L366.61 54.9L362.01 48.7Z" fill="#0095DA" fill-opacity="1.000000" fill-rule="nonzero"/>
        <path id="Контур 132" d="M360.41 48.7L360.41 54.9L358.01 54.9L358.01 40.7L360.41 40.7L360.41 46.7L361.81 46.7L366.31 40.7L369.11 40.7L363.91 47.5L369.51 54.9L366.61 54.9L362.01 48.7L360.41 48.7Z" stroke="#707070" stroke-opacity="0" stroke-width="1.000000"/>
    </g>
    <g style="mix-blend-mode:normal">
        <path id="Контур 133" d="M379.31 40.7L381.71 40.7L381.71 54.9L379.31 54.9L379.31 44.7L379.21 44.7L372.91 54.9L370.51 54.9L370.51 40.7L372.91 40.7L372.91 50.9L373.01 50.9L379.31 40.7Z" fill="#0095DA" fill-opacity="1.000000" fill-rule="nonzero"/>
        <path id="Контур 133" d="M381.71 40.7L381.71 54.9L379.31 54.9L379.31 44.7L379.21 44.7L372.91 54.9L370.51 54.9L370.51 40.7L372.91 40.7L372.91 50.9L373.01 50.9L379.31 40.7L381.71 40.7Z" stroke="#707070" stroke-opacity="0" stroke-width="1.000000"/>
    </g>
    <g style="mix-blend-mode:normal">
        <path id="Контур 134" d="M393.31 40.7L395.71 40.7L395.71 54.9L393.31 54.9L393.31 44.7L393.21 44.7L386.91 54.9L384.51 54.9L384.51 40.7L386.91 40.7L386.91 50.9L387.01 50.9L393.31 40.7ZM393.21 36.5C393.31 37.3 393.01 38 392.41 38.5C391.01 39.5 389.21 39.5 387.81 38.5C387.21 38 386.91 37.3 387.01 36.5L388.81 36.5C388.81 36.8 388.91 37.2 389.11 37.4C389.71 37.9 390.51 37.9 391.11 37.4C391.31 37.09 391.41 36.8 391.41 36.5L393.21 36.5Z" fill="#0095DA" fill-opacity="1.000000" fill-rule="nonzero"/>
        <path id="Контур 134" d="M395.71 40.7L395.71 54.9L393.31 54.9L393.31 44.7L393.21 44.7L386.91 54.9L384.51 54.9L384.51 40.7L386.91 40.7L386.91 50.9L387.01 50.9L393.31 40.7L395.71 40.7ZM392.41 38.5C391.01 39.5 389.21 39.5 387.81 38.5C387.21 38 386.91 37.3 387.01 36.5L388.81 36.5C388.81 36.8 388.91 37.2 389.11 37.4C389.71 37.9 390.51 37.9 391.11 37.4C391.31 37.09 391.41 36.8 391.41 36.5L393.21 36.5C393.31 37.3 393.01 38 392.41 38.5Z" stroke="#707070" stroke-opacity="0" stroke-width="1.000000"/>
    </g>
    <g style="mix-blend-mode:normal">
        <path id="Контур 135" d="M407.81 47.1L408.31 48.5L411.41 40.7L414.01 40.7L409.11 52.4C408.81 53.1 408.31 53.8 407.81 54.4C407.21 54.9 406.31 55.2 405.51 55.1L404.91 55.1L404.51 55.1L404.51 53.2L404.91 53.2L405.41 53.2C405.81 53.2 406.21 53.1 406.51 52.9C406.81 52.6 407.01 52.2 407.21 51.8L407.51 51.1L402.61 40.59L405.21 40.59L407.81 47.1Z" fill="#0095DA" fill-opacity="1.000000" fill-rule="nonzero"/>
        <path id="Контур 135" d="M408.31 48.5L411.41 40.7L414.01 40.7L409.11 52.4C408.81 53.1 408.31 53.8 407.81 54.4C407.21 54.9 406.31 55.2 405.51 55.1L404.91 55.1L404.51 55.1L404.51 53.2L404.91 53.2L405.41 53.2C405.81 53.2 406.21 53.1 406.51 52.9C406.81 52.6 407.01 52.2 407.21 51.8L407.51 51.1L402.61 40.59L405.21 40.59L407.81 47.1L408.31 48.5Z" stroke="#707070" stroke-opacity="0" stroke-width="1.000000"/>
    </g>
    <g style="mix-blend-mode:normal">
        <path id="Контур 136" d="M426.81 54.9L424.41 54.9L424.41 48.8L418.01 48.8L418.01 54.9L415.61 54.9L415.61 40.7L418.01 40.7L418.01 46.9L424.41 46.9L424.41 40.7L426.81 40.7L426.81 54.9Z" fill="#0095DA" fill-opacity="1.000000" fill-rule="nonzero"/>
        <path id="Контур 136" d="M424.41 54.9L424.41 48.8L418.01 48.8L418.01 54.9L415.61 54.9L415.61 40.7L418.01 40.7L418.01 46.9L424.41 46.9L424.41 40.7L426.81 40.7L426.81 54.9L424.41 54.9Z" stroke="#707070" stroke-opacity="0" stroke-width="1.000000"/>
    </g>
    <g style="mix-blend-mode:normal">
        <path id="Контур 137" d="M438.31 40.7L440.71 40.7L440.71 54.9L438.31 54.9L438.31 44.7L431.91 54.9L429.51 54.9L429.51 40.7L431.91 40.7L431.91 50.9L438.31 40.7Z" fill="#0095DA" fill-opacity="1.000000" fill-rule="nonzero"/>
        <path id="Контур 137" d="M440.71 40.7L440.71 54.9L438.31 54.9L438.31 44.7L431.91 54.9L429.51 54.9L429.51 40.7L431.91 40.7L431.91 50.9L438.31 40.7L440.71 40.7Z" stroke="#707070" stroke-opacity="0" stroke-width="1.000000"/>
    </g>
    <g style="mix-blend-mode:normal">
        <path id="Контур 138" d="M443.61 54.9L443.61 40.7L448.31 40.7C449.61 40.59 450.91 41 452.01 41.7C452.91 42.4 453.41 43.5 453.31 44.6C453.31 45.2 453.11 45.8 452.71 46.3C452.31 46.8 451.81 47.2 451.21 47.4C452.01 47.5 452.71 48 453.21 48.6C453.71 49.2 453.91 50 453.91 50.8C454.01 52 453.51 53.1 452.61 53.8C451.51 54.5 450.31 54.9 449.01 54.8L443.61 54.9ZM446.01 46.6L448.61 46.6C449.21 46.6 449.81 46.5 450.41 46.1C450.81 45.7 451.11 45.2 451.01 44.6C451.01 44 450.81 43.4 450.31 43C449.71 42.6 449.01 42.4 448.31 42.5L446.01 42.5L446.01 46.6ZM446.01 48.4L446.01 53L449.01 53C449.71 53 450.41 52.8 450.91 52.4C451.41 52 451.61 51.4 451.61 50.8C451.61 50.2 451.41 49.5 451.11 49C450.61 48.6 450.01 48.3 449.41 48.4L446.01 48.4Z" fill="#0095DA" fill-opacity="1.000000" fill-rule="nonzero"/>
        <path id="Контур 138" d="M443.61 40.7L448.31 40.7C449.61 40.59 450.91 41 452.01 41.7C452.91 42.4 453.41 43.5 453.31 44.6C453.31 45.2 453.11 45.8 452.71 46.3C452.31 46.8 451.81 47.2 451.21 47.4C452.01 47.5 452.71 48 453.21 48.6C453.71 49.2 453.91 50 453.91 50.8C454.01 52 453.51 53.1 452.61 53.8C451.51 54.5 450.31 54.9 449.01 54.8L443.61 54.9L443.61 40.7ZM448.61 46.6C449.21 46.6 449.81 46.5 450.41 46.1C450.81 45.7 451.11 45.2 451.01 44.6C451.01 44 450.81 43.4 450.31 43C449.71 42.6 449.01 42.4 448.31 42.5L446.01 42.5L446.01 46.6L448.61 46.6ZM446.01 53L449.01 53C449.71 53 450.41 52.8 450.91 52.4C451.41 52 451.61 51.4 451.61 50.8C451.61 50.2 451.41 49.5 451.11 49C450.61 48.6 450.01 48.3 449.41 48.4L446.01 48.4L446.01 53Z" stroke="#707070" stroke-opacity="0" stroke-width="1.000000"/>
    </g>
    <g style="mix-blend-mode:normal">
        <path id="Контур 139" d="M464.81 48.5L458.61 48.5L458.61 53L465.81 53L465.81 54.9L456.21 54.9L456.21 40.7L465.71 40.7L465.71 42.6L458.51 42.6L458.51 46.6L464.71 46.6L464.81 48.5Z" fill="#0095DA" fill-opacity="1.000000" fill-rule="nonzero"/>
        <path id="Контур 139" d="M458.61 48.5L458.61 53L465.81 53L465.81 54.9L456.21 54.9L456.21 40.7L465.71 40.7L465.71 42.6L458.51 42.6L458.51 46.6L464.71 46.6L464.81 48.5L458.61 48.5Z" stroke="#707070" stroke-opacity="0" stroke-width="1.000000"/>
    </g>
    <g style="mix-blend-mode:normal">
        <path id="Контур 140" d="M469.91 49.5L469.91 54.9L467.51 54.9L467.51 40.7L473.01 40.7C474.31 40.59 475.71 41.1 476.71 41.9C478.51 43.7 478.51 46.5 476.71 48.3C475.71 49.2 474.31 49.6 473.01 49.5L469.91 49.5ZM469.91 47.6L473.11 47.6C473.81 47.7 474.61 47.4 475.11 46.9C475.51 46.4 475.81 45.8 475.81 45.1C475.91 43.8 474.91 42.6 473.61 42.6C473.51 42.6 473.31 42.6 473.21 42.6L470.01 42.6L469.91 47.6Z" fill="#0095DA" fill-opacity="1.000000" fill-rule="nonzero"/>
        <path id="Контур 140" d="M469.91 54.9L467.51 54.9L467.51 40.7L473.01 40.7C474.31 40.59 475.71 41.1 476.71 41.9C478.51 43.7 478.51 46.5 476.71 48.3C475.71 49.2 474.31 49.6 473.01 49.5L469.91 49.5L469.91 54.9ZM473.11 47.6C473.81 47.7 474.61 47.4 475.11 46.9C475.51 46.4 475.81 45.8 475.81 45.1C475.91 43.8 474.91 42.6 473.61 42.6C473.51 42.6 473.31 42.6 473.21 42.6L470.01 42.6L469.91 47.6L473.11 47.6Z" stroke="#707070" stroke-opacity="0" stroke-width="1.000000"/>
    </g>
    <g style="mix-blend-mode:normal">
        <path id="Контур 141" d="M490.61 50.2C490.71 51.6 490.21 52.9 489.21 53.8C488.11 54.7 486.71 55.2 485.31 55.1C483.81 55.1 482.31 54.5 481.31 53.4C480.21 52.2 479.71 50.7 479.71 49.1L479.71 46.4C479.61 44.8 480.21 43.3 481.21 42.1C482.21 41 483.71 40.4 485.21 40.4C486.71 40.3 488.11 40.8 489.21 41.7C490.21 42.6 490.71 43.9 490.61 45.3L488.31 45.4C488.31 44.6 488.11 43.8 487.51 43.2C486.91 42.6 486.11 42.3 485.21 42.4C484.31 42.4 483.41 42.8 482.91 43.6C482.31 44.4 482.01 45.5 482.01 46.5L482.01 49.2C482.01 50.2 482.31 51.3 482.91 52.1C483.41 52.9 484.31 53.3 485.21 53.3C486.01 53.4 486.81 53.1 487.41 52.5C487.91 51.9 488.21 51.1 488.21 50.3L490.61 50.2Z" fill="#0095DA" fill-opacity="1.000000" fill-rule="nonzero"/>
        <path id="Контур 141" d="M489.21 53.8C488.11 54.7 486.71 55.2 485.31 55.1C483.81 55.1 482.31 54.5 481.31 53.4C480.21 52.2 479.71 50.7 479.71 49.1L479.71 46.4C479.61 44.8 480.21 43.3 481.21 42.1C482.21 41 483.71 40.4 485.21 40.4C486.71 40.3 488.11 40.8 489.21 41.7C490.21 42.6 490.71 43.9 490.61 45.3L488.31 45.4C488.31 44.6 488.11 43.8 487.51 43.2C486.91 42.6 486.11 42.3 485.21 42.4C484.31 42.4 483.41 42.8 482.91 43.6C482.31 44.4 482.01 45.5 482.01 46.5L482.01 49.2C482.01 50.2 482.31 51.3 482.91 52.1C483.41 52.9 484.31 53.3 485.21 53.3C486.01 53.4 486.81 53.1 487.41 52.5C487.91 51.9 488.21 51.1 488.21 50.3L490.61 50.2C490.71 51.6 490.21 52.9 489.21 53.8Z" stroke="#707070" stroke-opacity="0" stroke-width="1.000000"/>
    </g>
    <g style="mix-blend-mode:normal">
        <path id="Контур 142" d="M501.41 40.7L503.81 40.7L503.81 54.9L501.41 54.9L501.41 44.7L495.11 54.9L492.71 54.9L492.71 40.7L495.11 40.7L495.11 50.9L501.41 40.7Z" fill="#0095DA" fill-opacity="1.000000" fill-rule="nonzero"/>
        <path id="Контур 142" d="M503.81 40.7L503.81 54.9L501.41 54.9L501.41 44.7L495.11 54.9L492.71 54.9L492.71 40.7L495.11 40.7L495.11 50.9L501.41 40.7L503.81 40.7Z" stroke="#707070" stroke-opacity="0" stroke-width="1.000000"/>
    </g>
    <g style="mix-blend-mode:normal">
        <path id="Контур 143" d="M516.41 42.6L512.11 42.6L512.11 54.9L509.71 54.9L509.71 42.6L505.41 42.6L505.41 40.7L516.41 40.7L516.41 42.6Z" fill="#0095DA" fill-opacity="1.000000" fill-rule="nonzero"/>
        <path id="Контур 143" d="M512.11 42.6L512.11 54.9L509.71 54.9L509.71 42.6L505.41 42.6L505.41 40.7L516.41 40.7L516.41 42.6L512.11 42.6Z" stroke="#707070" stroke-opacity="0" stroke-width="1.000000"/>
    </g>
    <g style="mix-blend-mode:normal">
        <path id="Контур 144" d="M526.61 48.5L520.41 48.5L520.41 53L527.61 53L527.61 54.9L518.11 54.9L518.11 40.7L527.61 40.7L527.61 42.6L520.41 42.6L520.41 46.6L526.61 46.6L526.61 48.5Z" fill="#0095DA" fill-opacity="1.000000" fill-rule="nonzero"/>
        <path id="Контур 144" d="M520.41 48.5L520.41 53L527.61 53L527.61 54.9L518.11 54.9L518.11 40.7L527.61 40.7L527.61 42.6L520.41 42.6L520.41 46.6L526.61 46.6L526.61 48.5L520.41 48.5Z" stroke="#707070" stroke-opacity="0" stroke-width="1.000000"/>
    </g>
    <g style="mix-blend-mode:normal">
        <path id="Контур 145" d="M539.31 42.6L535.01 42.6L535.01 54.9L532.61 54.9L532.61 42.6L528.31 42.6L528.31 40.7L539.31 40.7L539.31 42.6Z" fill="#0095DA" fill-opacity="1.000000" fill-rule="nonzero"/>
        <path id="Контур 145" d="M535.01 42.6L535.01 54.9L532.61 54.9L532.61 42.6L528.31 42.6L528.31 40.7L539.31 40.7L539.31 42.6L535.01 42.6Z" stroke="#707070" stroke-opacity="0" stroke-width="1.000000"/>
    </g>
    <g style="mix-blend-mode:normal">
        <path id="Контур 146" d="M545.01 49.3C545.11 51.6 544.51 53.8 543.41 55.8C542.71 57.3 541.51 58.5 540.11 59.4L539.61 58.2C540.61 57.3 541.41 56.2 541.81 55C542.51 53.2 542.81 51.3 542.71 49.4L542.71 49.2C542.71 47.3 542.41 45.4 541.71 43.7C541.21 42.5 540.51 41.3 539.51 40.5L540.11 39C541.51 39.8 542.71 41.1 543.41 42.6C544.51 44.6 545.01 46.8 545.01 49.1L545.01 49.3Z" fill="#0095DA" fill-opacity="1.000000" fill-rule="nonzero"/>
        <path id="Контур 146" d="M543.41 55.8C542.71 57.3 541.51 58.5 540.11 59.4L539.61 58.2C540.61 57.3 541.41 56.2 541.81 55C542.51 53.2 542.81 51.3 542.71 49.4L542.71 49.2C542.71 47.3 542.41 45.4 541.71 43.7C541.21 42.5 540.51 41.3 539.51 40.5L540.11 39C541.51 39.8 542.71 41.1 543.41 42.6C544.51 44.6 545.01 46.8 545.01 49.1L545.01 49.3C545.11 51.6 544.51 53.8 543.41 55.8Z" stroke="#707070" stroke-opacity="0" stroke-width="1.000000"/>
    </g>
</svg>
