<svg width="92.962891" height="89.500000" viewBox="0 0 92.9629 89.5" fill="none" xmlns="http://www.w3.org/2000/svg" xmlns:xlink="http://www.w3.org/1999/xlink">
	<desc>
		Created with Pixso.
	</desc>
	<defs/>
	<g style="mix-blend-mode:normal">
		<path id="Контур 147" d="M65.1 0L21.2 0C21.89 13.7 12.29 22.3 0 24.3C3 55.2 18.89 78 46.6 89.5C68.5 80.3 86.39 62.7 91.79 38.09C96.7 15.5 85.79 0 65.1 0Z" fill="#FFFFFF" fill-opacity="1.000000" fill-rule="nonzero"/>
		<path id="Контур 147" d="M21.2 0C21.89 13.7 12.29 22.3 0 24.3C3 55.2 18.89 78 46.6 89.5C68.5 80.3 86.39 62.7 91.79 38.09C96.7 15.5 85.79 0 65.1 0L21.2 0Z" stroke="#707070" stroke-opacity="0" stroke-width="1.000000"/>
	</g>
	<g style="mix-blend-mode:normal">
		<path id="Контур 148" d="M65.1 0L21.2 0C21.89 13.7 12.29 22.3 0 24.3C3 55.2 18.89 78 46.6 89.5C68.5 80.3 86.39 62.7 91.79 38.09C96.7 15.5 85.79 0 65.1 0ZM88.5 37.4C83.79 59.2 68.1 76.69 46.6 85.9C21.39 75.1 6.89 53.7 3.7 26.9C15 24 23.7 15.5 24.5 3.3L65.2 3.3C85.2 3.2 92.6 18.9 88.5 37.4Z" fill="#0095DA" fill-opacity="1.000000" fill-rule="nonzero"/>
		<path id="Контур 148" d="M21.2 0C21.89 13.7 12.29 22.3 0 24.3C3 55.2 18.89 78 46.6 89.5C68.5 80.3 86.39 62.7 91.79 38.09C96.7 15.5 85.79 0 65.1 0L21.2 0ZM46.6 85.9C21.39 75.1 6.89 53.7 3.7 26.9C15 24 23.7 15.5 24.5 3.3L65.2 3.3C85.2 3.2 92.6 18.9 88.5 37.4C83.79 59.2 68.1 76.69 46.6 85.9Z" stroke="#707070" stroke-opacity="0" stroke-width="1.000000"/>
	</g>
	<g style="mix-blend-mode:normal">
		<path id="Контур 149" d="M44.2 53.3L49 53.3L46.8 42.4L44.2 53.3Z" fill="#0095DA" fill-opacity="1.000000" fill-rule="nonzero"/>
		<path id="Контур 149" d="M49 53.3L46.8 42.4L44.2 53.3L49 53.3Z" stroke="#707070" stroke-opacity="0" stroke-width="1.000000"/>
	</g>
	<g style="mix-blend-mode:normal">
		<path id="Контур 150" d="M65.29 6.3L27.2 6.3C25.39 17.4 17.5 25.5 7 29C10.6 53.7 24.5 72.8 46.7 82.7C66.2 73.8 81 58 85.6 36.7C89.2 20.2 83.29 6.2 65.29 6.3ZM13.5 31.5L37 31.5L48.1 19.1L43.39 17.4C42.89 17.2 42.89 16.7 43.39 16.7L48.6 16.7L50.2 11.3C50.29 10.9 50.79 11 50.79 11.3L51.29 16.7L56.29 16.7C56.7 16.7 56.79 17.2 56.1 17.4L50.79 19.2L42.5 31.5L45.29 31.5C45 32.5 44.7 33.7 44.39 35.09L40 35.4L39.5 36.09C38.29 37.59 35.2 41.4 33.39 41.8C32.5 42 31.6 41.3 31.5 40.4C31.39 40.09 31.5 39.7 31.6 39.4C32 38 33.2 36.8 33.79 35.59L13.39 33C12.39 33 12.5 31.5 13.5 31.5ZM72.2 48.9C70.6 48.9 70.6 49.5 70.6 51.1L70.6 58.4C70.6 60 70.7 60.6 72.2 60.6L72.2 62L65.89 62L65.89 60.5C67.29 60.5 67.6 60 67.6 58.3L67.6 52.6L62.39 59L62.39 59.3C62.39 60.2 62.89 60.5 64.1 60.5L64.1 62L48.29 62L48.29 60.5C49.39 60.5 50.2 60.4 50.2 59.3C50.1 57.8 49.79 56.4 49.39 54.9L43.7 54.9L43 57.8C42.5 59.7 42.6 60.5 44.7 60.5L44.7 62L31.5 62L31.5 60.5C33.1 60.5 33.2 60 33.2 58.3L33.2 51.5L29.2 61.4L25.1 51.2L25.1 58.4C25.1 59.8 25.2 60.4 26.79 60.4L26.79 61.9L22 61.9L22 60.5C23.7 60.5 23.7 59.5 23.7 58.1L23.7 51C23.7 49.8 23.7 48.8 22.1 48.8L22.1 47.4L27.29 47.4L30.1 54.9L32.89 47.4L37.89 47.4L37.89 48.9C36.29 48.9 36.29 49.5 36.29 51.1L36.29 58.4C36.29 59.8 36.5 60.2 36.89 60.4C37.79 60.8 39.7 60.7 40.2 59.6C40.7 58.6 41.1 57.5 41.29 56.4L48 29.8L54.1 55.8C54.79 58.6 55.1 59.3 55.79 59.9C56.5 60.5 58.39 60.8 59.1 60.1C59.29 59.9 59.39 59.6 59.39 58.4L59.39 51C59.39 49.3 59.29 48.8 57.7 48.8L57.7 47.4L64.1 47.4L64.1 48.9C62.5 48.9 62.39 49.6 62.39 51.1L62.39 56.8L67.5 50.5L67.5 50.3C67.5 49.6 67.1 49 65.79 49L65.79 47.5L72.1 47.5L72.2 48.9ZM71.6 33L51.5 34.5L50.79 31.4L71.7 31.4C72.1 31.3 72.5 31.6 72.6 32C72.7 32.4 72.39 32.8 72 32.9C71.79 33 71.7 33 71.6 33Z" fill="#0095DA" fill-opacity="1.000000" fill-rule="nonzero"/>
		<path id="Контур 150" d="M27.2 6.3C25.39 17.4 17.5 25.5 7 29C10.6 53.7 24.5 72.8 46.7 82.7C66.2 73.8 81 58 85.6 36.7C89.2 20.2 83.29 6.2 65.29 6.3L27.2 6.3ZM37 31.5L48.1 19.1L43.39 17.4C42.89 17.2 42.89 16.7 43.39 16.7L48.6 16.7L50.2 11.3C50.29 10.9 50.79 11 50.79 11.3L51.29 16.7L56.29 16.7C56.7 16.7 56.79 17.2 56.1 17.4L50.79 19.2L42.5 31.5L45.29 31.5C45 32.5 44.7 33.7 44.39 35.09L40 35.4L39.5 36.09C38.29 37.59 35.2 41.4 33.39 41.8C32.5 42 31.6 41.3 31.5 40.4C31.39 40.09 31.5 39.7 31.6 39.4C32 38 33.2 36.8 33.79 35.59L13.39 33C12.39 33 12.5 31.5 13.5 31.5L37 31.5ZM70.6 51.1L70.6 58.4C70.6 60 70.7 60.6 72.2 60.6L72.2 62L65.89 62L65.89 60.5C67.29 60.5 67.6 60 67.6 58.3L67.6 52.6L62.39 59L62.39 59.3C62.39 60.2 62.89 60.5 64.1 60.5L64.1 62L48.29 62L48.29 60.5C49.39 60.5 50.2 60.4 50.2 59.3C50.1 57.8 49.79 56.4 49.39 54.9L43.7 54.9L43 57.8C42.5 59.7 42.6 60.5 44.7 60.5L44.7 62L31.5 62L31.5 60.5C33.1 60.5 33.2 60 33.2 58.3L33.2 51.5L29.2 61.4L25.1 51.2L25.1 58.4C25.1 59.8 25.2 60.4 26.79 60.4L26.79 61.9L22 61.9L22 60.5C23.7 60.5 23.7 59.5 23.7 58.1L23.7 51C23.7 49.8 23.7 48.8 22.1 48.8L22.1 47.4L27.29 47.4L30.1 54.9L32.89 47.4L37.89 47.4L37.89 48.9C36.29 48.9 36.29 49.5 36.29 51.1L36.29 58.4C36.29 59.8 36.5 60.2 36.89 60.4C37.79 60.8 39.7 60.7 40.2 59.6C40.7 58.6 41.1 57.5 41.29 56.4L48 29.8L54.1 55.8C54.79 58.6 55.1 59.3 55.79 59.9C56.5 60.5 58.39 60.8 59.1 60.1C59.29 59.9 59.39 59.6 59.39 58.4L59.39 51C59.39 49.3 59.29 48.8 57.7 48.8L57.7 47.4L64.1 47.4L64.1 48.9C62.5 48.9 62.39 49.6 62.39 51.1L62.39 56.8L67.5 50.5L67.5 50.3C67.5 49.6 67.1 49 65.79 49L65.79 47.5L72.1 47.5L72.2 48.9C70.6 48.9 70.6 49.5 70.6 51.1ZM51.5 34.5L50.79 31.4L71.7 31.4C72.1 31.3 72.5 31.6 72.6 32C72.7 32.4 72.39 32.8 72 32.9C71.79 33 71.7 33 71.6 33L51.5 34.5Z" stroke="#707070" stroke-opacity="0" stroke-width="1.000000"/>
	</g>
</svg>
